STARTFONT 2.1
FONT -Sivappu-Shruthi-Medium-r-normal--16-160-75-75-c-80-iso10646-1
SIZE 8 16 75
FONTBOUNDINGBOX 8 16 0 -2
STARTPROPERTIES 22
FONT_VERSION "0.0.2`"
FONT_TYPE "Bitmap"
FOUNDRY "sivappu"
FAMILY_NAME "Shruthi"
WEIGHT_NAME "Medium"
SLANT "R"
SETWIDTH_NAME "Normal"
PIXEL_SIZE 16
POINT_SIZE 160
RESOLUTION_X 75
RESOLUTION_Y 75
SPACING "C"
AVERAGE_WIDTH 80
CHARSET_REGISTRY "ISO10646"
CHARSET_ENCODING "1"
UNDERLINE_POSITION -2
UNDERLINE_THICKNESS 1
CAP_HEIGHT 10
X_HEIGHT 8
FONT_ASCENT 14
FONT_DESCENT 2
DEFAULT_CHAR 65533
ENDPROPERTIES
CHARS 403
STARTCHAR U+2840
ENCODING 10304
SWIDTH 1000 0
DWIDTH 8 0
BBX 8 16 0 -2
BITMAP
00
00
18
18
00
38
08
08
ff
89
89
ff
00
00
00
00
ENDCHAR
STARTCHAR U+2841
ENCODING 10305
SWIDTH 1000 0
DWIDTH 8 0
BBX 8 16 0 -2
BITMAP
00
00
0f
0a
0a
6a
2a
22
fa
aa
aa
fa
00
00
00
00
ENDCHAR
STARTCHAR U+2842
ENCODING 10306
SWIDTH 1000 0
DWIDTH 8 0
BBX 8 16 0 -2
BITMAP
1f
11
11
11
11
39
09
08
ff
89
89
ff
00
00
00
00
ENDCHAR
STARTCHAR U+2843
ENCODING 10307
SWIDTH 1000 0
DWIDTH 8 0
BBX 8 16 0 -2
BITMAP
1f
11
15
17
10
38
08
08
ff
89
89
ff
00
00
00
00
ENDCHAR
STARTCHAR U+2844
ENCODING 10308
SWIDTH 1000 0
DWIDTH 8 0
BBX 8 16 0 -2
BITMAP
00
00
00
00
80
98
88
88
be
aa
aa
ba
82
82
fe
00
ENDCHAR
STARTCHAR U+2845
ENCODING 10309
SWIDTH 1000 0
DWIDTH 8 0
BBX 8 16 0 -2
BITMAP
00
00
00
00
00
60
20
20
fc
a4
af
ed
00
00
00
00
ENDCHAR
STARTCHAR U+2846
ENCODING 10310
SWIDTH 1000 0
DWIDTH 8 0
BBX 8 16 0 -2
BITMAP
ff
81
81
9c
84
bf
a5
bf
80
9c
94
fc
00
00
00
00
ENDCHAR
STARTCHAR U+2847
ENCODING 10311
SWIDTH 1000 0
DWIDTH 8 0
BBX 8 16 0 -2
BITMAP
e0
a0
e0
8c
84
bf
a5
bf
80
9c
94
fc
00
00
00
00
ENDCHAR
STARTCHAR U+2848
ENCODING 10312
SWIDTH 1000 0
DWIDTH 8 0
BBX 8 16 0 -2
BITMAP
ff
95
95
9d
e1
a3
e0
0c
04
3f
25
3f
00
00
00
00
ENDCHAR
STARTCHAR U+2849
ENCODING 10313
SWIDTH 1000 0
DWIDTH 8 0
BBX 8 16 0 -2
BITMAP
ff
81
81
9c
84
bf
a5
bf
80
e0
af
ea
0a
0a
0a
0a
ENDCHAR
STARTCHAR U+284A
ENCODING 10314
SWIDTH 1000 0
DWIDTH 8 0
BBX 8 16 0 -2
BITMAP
e0
a0
e0
8c
84
bf
a5
bf
80
e0
af
ea
0a
0a
0a
0a
ENDCHAR
STARTCHAR U+284B
ENCODING 10315
SWIDTH 1000 0
DWIDTH 8 0
BBX 8 16 0 -2
BITMAP
ff
81
81
9c
84
bf
a5
bf
80
e0
af
ea
0a
7a
4a
6a
ENDCHAR
STARTCHAR U+284C
ENCODING 10316
SWIDTH 1000 0
DWIDTH 8 0
BBX 8 16 0 -2
BITMAP
00
00
18
18
00
fd
a1
a1
bd
85
85
bf
00
00
00
00
ENDCHAR
STARTCHAR U+284D
ENCODING 10317
SWIDTH 1000 0
DWIDTH 8 0
BBX 8 16 0 -2
BITMAP
00
0f
0a
0a
02
f8
a2
a2
ba
8a
8a
be
00
00
00
00
ENDCHAR
STARTCHAR U+284E
ENCODING 10318
SWIDTH 1000 0
DWIDTH 8 0
BBX 8 16 0 -2
BITMAP
3f
21
20
3f
01
fd
a1
a1
bd
85
85
bf
00
00
00
00
ENDCHAR
STARTCHAR U+284F
ENCODING 10319
SWIDTH 1000 0
DWIDTH 8 0
BBX 8 16 0 -2
BITMAP
1f
15
17
10
10
fd
a1
a1
bd
85
85
bf
00
00
00
00
ENDCHAR
STARTCHAR U+2850
ENCODING 10320
SWIDTH 1000 0
DWIDTH 8 0
BBX 8 16 0 -2
BITMAP
00
00
00
00
00
fd
a1
a1
bd
85
85
bf
01
01
01
01
ENDCHAR
STARTCHAR U+2851
ENCODING 10321
SWIDTH 1000 0
DWIDTH 8 0
BBX 8 16 0 -2
BITMAP
00
00
00
00
00
fd
a1
a1
bd
85
85
bf
01
7d
41
7f
ENDCHAR
STARTCHAR U+2852
ENCODING 10322
SWIDTH 1000 0
DWIDTH 8 0
BBX 8 16 0 -2
BITMAP
ff
81
81
80
bd
a9
a5
af
80
9c
94
fc
00
00
00
00
ENDCHAR
STARTCHAR U+2853
ENCODING 10323
SWIDTH 1000 0
DWIDTH 8 0
BBX 8 16 0 -2
BITMAP
e0
a0
e0
80
bd
a9
a5
af
80
9c
94
fc
00
00
00
00
ENDCHAR
STARTCHAR U+2854
ENCODING 10324
SWIDTH 1000 0
DWIDTH 8 0
BBX 8 16 0 -2
BITMAP
ff
95
95
9d
e1
a3
e0
00
3d
29
25
2f
00
00
00
00
ENDCHAR
STARTCHAR U+2855
ENCODING 10325
SWIDTH 1000 0
DWIDTH 8 0
BBX 8 16 0 -2
BITMAP
ff
81
81
80
bd
a9
a5
af
80
e0
af
ea
0a
0a
0a
0a
ENDCHAR
STARTCHAR U+2856
ENCODING 10326
SWIDTH 1000 0
DWIDTH 8 0
BBX 8 16 0 -2
BITMAP
e0
a0
e0
80
bd
a9
a5
af
80
e0
af
ea
0a
0a
0a
0a
ENDCHAR
STARTCHAR U+2857
ENCODING 10327
SWIDTH 1000 0
DWIDTH 8 0
BBX 8 16 0 -2
BITMAP
ff
81
81
80
bd
a9
a5
af
80
e0
af
ea
0a
7a
4a
6a
ENDCHAR
STARTCHAR U+2858
ENCODING 10328
SWIDTH 1000 0
DWIDTH 8 0
BBX 8 16 0 -2
BITMAP
00
00
18
18
00
38
08
08
ff
88
88
f8
00
00
00
00
ENDCHAR
STARTCHAR U+2859
ENCODING 10329
SWIDTH 1000 0
DWIDTH 8 0
BBX 8 16 0 -2
BITMAP
00
0f
0a
0a
0a
6a
2a
22
fa
a2
a2
e2
00
00
00
00
ENDCHAR
STARTCHAR U+285A
ENCODING 10330
SWIDTH 1000 0
DWIDTH 8 0
BBX 8 16 0 -2
BITMAP
1f
11
11
11
11
39
09
08
ff
88
88
f8
00
00
00
00
ENDCHAR
STARTCHAR U+285B
ENCODING 10331
SWIDTH 1000 0
DWIDTH 8 0
BBX 8 16 0 -2
BITMAP
1f
15
17
10
10
38
08
08
ff
88
88
f8
00
00
00
00
ENDCHAR
STARTCHAR U+285C
ENCODING 10332
SWIDTH 1000 0
DWIDTH 8 0
BBX 8 16 0 -2
BITMAP
00
00
00
00
00
38
08
08
ff
8a
8a
fa
00
00
00
00
ENDCHAR
STARTCHAR U+285D
ENCODING 10333
SWIDTH 1000 0
DWIDTH 8 0
BBX 8 16 0 -2
BITMAP
00
00
00
80
80
98
88
88
bf
aa
aa
ba
83
81
ff
00
ENDCHAR
STARTCHAR U+285E
ENCODING 10334
SWIDTH 1000 0
DWIDTH 8 0
BBX 8 16 0 -2
BITMAP
ff
81
81
9c
84
bf
a4
bc
80
9c
94
fc
00
00
00
00
ENDCHAR
STARTCHAR U+285F
ENCODING 10335
SWIDTH 1000 0
DWIDTH 8 0
BBX 8 16 0 -2
BITMAP
e0
a0
e0
8c
84
bf
a4
bc
80
9c
94
fc
00
00
00
00
ENDCHAR
STARTCHAR U+2860
ENCODING 10336
SWIDTH 1000 0
DWIDTH 8 0
BBX 8 16 0 -2
BITMAP
ff
95
95
9d
e1
a3
e0
0c
04
3f
24
3c
00
00
00
00
ENDCHAR
STARTCHAR U+2861
ENCODING 10337
SWIDTH 1000 0
DWIDTH 8 0
BBX 8 16 0 -2
BITMAP
ff
81
81
9c
84
bf
a4
bc
80
e0
af
ea
0a
0a
0a
0a
ENDCHAR
STARTCHAR U+2862
ENCODING 10338
SWIDTH 1000 0
DWIDTH 8 0
BBX 8 16 0 -2
BITMAP
e0
a0
e0
8c
84
bf
a4
bc
80
e0
af
ea
0a
0a
0a
0a
ENDCHAR
STARTCHAR U+2863
ENCODING 10339
SWIDTH 1000 0
DWIDTH 8 0
BBX 8 16 0 -2
BITMAP
ff
81
81
9c
84
bf
a4
bc
80
e0
af
ea
0a
7a
4a
6a
ENDCHAR
STARTCHAR U+2864
ENCODING 10340
SWIDTH 1000 0
DWIDTH 8 0
BBX 8 16 0 -2
BITMAP
00
00
18
18
00
7f
44
44
44
77
55
75
01
41
7f
00
ENDCHAR
STARTCHAR U+2865
ENCODING 10341
SWIDTH 1000 0
DWIDTH 8 0
BBX 8 16 0 -2
BITMAP
00
0f
0a
0a
02
fa
92
92
92
90
dc
d4
04
84
fc
00
ENDCHAR
STARTCHAR U+2866
ENCODING 10342
SWIDTH 1000 0
DWIDTH 8 0
BBX 8 16 0 -2
BITMAP
1f
11
11
10
10
7f
44
44
44
77
55
75
01
41
7f
00
ENDCHAR
STARTCHAR U+2867
ENCODING 10343
SWIDTH 1000 0
DWIDTH 8 0
BBX 8 16 0 -2
BITMAP
1f
15
17
10
10
7f
44
44
44
77
55
75
01
41
7f
00
ENDCHAR
STARTCHAR U+2868
ENCODING 10344
SWIDTH 1000 0
DWIDTH 8 0
BBX 8 16 0 -2
BITMAP
00
00
00
00
00
f9
91
91
91
91
dd
d5
05
ff
84
fc
ENDCHAR
STARTCHAR U+2869
ENCODING 10345
SWIDTH 1000 0
DWIDTH 8 0
BBX 8 16 0 -2
BITMAP
00
0f
0a
0a
00
f9
91
91
91
91
dd
d5
05
ff
84
fc
ENDCHAR
STARTCHAR U+286A
ENCODING 10346
SWIDTH 1000 0
DWIDTH 8 0
BBX 8 16 0 -2
BITMAP
ff
81
80
9f
92
9b
81
bf
80
9c
94
fc
00
00
00
00
ENDCHAR
STARTCHAR U+286B
ENCODING 10347
SWIDTH 1000 0
DWIDTH 8 0
BBX 8 16 0 -2
BITMAP
e0
a0
e0
9f
92
9b
81
bf
80
9c
94
fc
00
00
00
00
ENDCHAR
STARTCHAR U+286C
ENCODING 10348
SWIDTH 1000 0
DWIDTH 8 0
BBX 8 16 0 -2
BITMAP
ff
95
95
9d
e1
a3
e0
00
7f
44
47
65
01
41
7f
00
ENDCHAR
STARTCHAR U+286D
ENCODING 10349
SWIDTH 1000 0
DWIDTH 8 0
BBX 8 16 0 -2
BITMAP
ff
81
80
9f
92
9b
81
bf
80
e0
af
ea
0a
0a
0a
0a
ENDCHAR
STARTCHAR U+286E
ENCODING 10350
SWIDTH 1000 0
DWIDTH 8 0
BBX 8 16 0 -2
BITMAP
e0
a0
e0
9f
92
9b
81
bf
80
e0
af
ea
0a
0a
0a
0a
ENDCHAR
STARTCHAR U+286F
ENCODING 10351
SWIDTH 1000 0
DWIDTH 8 0
BBX 8 16 0 -2
BITMAP
ff
81
80
9f
92
9b
81
bf
80
e0
af
ea
0a
7a
4a
6a
ENDCHAR
STARTCHAR U+2870
ENCODING 10352
SWIDTH 1000 0
DWIDTH 8 0
BBX 8 16 0 -2
BITMAP
00
00
18
18
00
80
80
80
80
80
80
ff
00
00
00
00
ENDCHAR
STARTCHAR U+2871
ENCODING 10353
SWIDTH 1000 0
DWIDTH 8 0
BBX 8 16 0 -2
BITMAP
00
0f
0a
0a
0a
8a
8a
8a
8a
8a
82
fa
00
00
00
00
ENDCHAR
STARTCHAR U+2872
ENCODING 10354
SWIDTH 1000 0
DWIDTH 8 0
BBX 8 16 0 -2
BITMAP
00
00
00
00
00
80
9c
94
94
94
94
ff
04
04
3c
00
ENDCHAR
STARTCHAR U+2873
ENCODING 10355
SWIDTH 1000 0
DWIDTH 8 0
BBX 8 16 0 -2
BITMAP
00
00
00
00
00
80
9c
94
9c
90
90
ff
00
00
00
00
ENDCHAR
STARTCHAR U+2874
ENCODING 10356
SWIDTH 1000 0
DWIDTH 8 0
BBX 8 16 0 -2
BITMAP
00
00
00
ff
81
91
90
90
9e
92
92
92
82
82
fe
00
ENDCHAR
STARTCHAR U+2875
ENCODING 10357
SWIDTH 1000 0
DWIDTH 8 0
BBX 8 16 0 -2
BITMAP
00
00
00
ff
85
97
90
90
9e
92
92
92
82
82
fe
00
ENDCHAR
STARTCHAR U+2876
ENCODING 10358
SWIDTH 1000 0
DWIDTH 8 0
BBX 8 16 0 -2
BITMAP
ff
81
81
80
a0
a0
a0
be
80
9c
94
fc
00
00
00
00
ENDCHAR
STARTCHAR U+2877
ENCODING 10359
SWIDTH 1000 0
DWIDTH 8 0
BBX 8 16 0 -2
BITMAP
e0
a0
e0
80
a0
a0
a0
be
80
9c
94
fc
00
00
00
00
ENDCHAR
STARTCHAR U+2878
ENCODING 10360
SWIDTH 1000 0
DWIDTH 8 0
BBX 8 16 0 -2
BITMAP
ff
95
95
9d
e1
a3
e0
00
20
20
20
3e
00
00
00
00
ENDCHAR
STARTCHAR U+2879
ENCODING 10361
SWIDTH 1000 0
DWIDTH 8 0
BBX 8 16 0 -2
BITMAP
ff
81
81
80
a0
a0
a0
be
80
e0
af
ea
0a
0a
0a
0a
ENDCHAR
STARTCHAR U+287A
ENCODING 10362
SWIDTH 1000 0
DWIDTH 8 0
BBX 8 16 0 -2
BITMAP
e0
a0
e0
80
a0
a0
a0
be
80
e0
af
ea
0a
0a
0a
0a
ENDCHAR
STARTCHAR U+287B
ENCODING 10363
SWIDTH 1000 0
DWIDTH 8 0
BBX 8 16 0 -2
BITMAP
ff
81
81
80
a0
a0
a0
be
80
e0
af
ea
0a
7a
4a
6a
ENDCHAR
STARTCHAR U+287C
ENCODING 10364
SWIDTH 1000 0
DWIDTH 8 0
BBX 8 16 0 -2
BITMAP
00
00
18
18
00
ff
aa
aa
aa
2a
2a
2a
00
00
00
00
ENDCHAR
STARTCHAR U+287D
ENCODING 10365
SWIDTH 1000 0
DWIDTH 8 0
BBX 8 16 0 -2
BITMAP
00
0f
0a
0a
00
ff
aa
aa
aa
2a
2a
2a
00
00
00
00
ENDCHAR
STARTCHAR U+287E
ENCODING 10366
SWIDTH 1000 0
DWIDTH 8 0
BBX 8 16 0 -2
BITMAP
1f
11
11
10
10
ff
aa
aa
aa
2a
2a
2a
00
00
00
00
ENDCHAR
STARTCHAR U+287F
ENCODING 10367
SWIDTH 1000 0
DWIDTH 8 0
BBX 8 16 0 -2
BITMAP
1f
15
17
10
10
ff
aa
aa
aa
2a
2a
2a
00
00
00
00
ENDCHAR
STARTCHAR U+2880
ENCODING 10368
SWIDTH 1000 0
DWIDTH 8 0
BBX 8 16 0 -2
BITMAP
00
00
00
00
00
ff
aa
aa
aa
2a
2a
2a
02
ff
82
fe
ENDCHAR
STARTCHAR U+2881
ENCODING 10369
SWIDTH 1000 0
DWIDTH 8 0
BBX 8 16 0 -2
BITMAP
00
0f
0a
0a
00
ff
aa
aa
aa
2a
2a
2a
02
ff
82
fe
ENDCHAR
STARTCHAR U+2882
ENCODING 10370
SWIDTH 1000 0
DWIDTH 8 0
BBX 8 16 0 -2
BITMAP
ff
81
81
80
00
ff
aa
2a
80
9c
94
fc
00
00
00
00
ENDCHAR
STARTCHAR U+2883
ENCODING 10371
SWIDTH 1000 0
DWIDTH 8 0
BBX 8 16 0 -2
BITMAP
e0
a0
e0
80
00
ff
aa
2a
80
9c
94
fc
00
00
00
00
ENDCHAR
STARTCHAR U+2884
ENCODING 10372
SWIDTH 1000 0
DWIDTH 8 0
BBX 8 16 0 -2
BITMAP
ff
95
95
9d
e1
a3
e0
00
ff
aa
aa
2a
00
00
00
00
ENDCHAR
STARTCHAR U+2885
ENCODING 10373
SWIDTH 1000 0
DWIDTH 8 0
BBX 8 16 0 -2
BITMAP
ff
81
81
80
00
ff
aa
2a
80
e0
af
ea
0a
0a
0a
0a
ENDCHAR
STARTCHAR U+2886
ENCODING 10374
SWIDTH 1000 0
DWIDTH 8 0
BBX 8 16 0 -2
BITMAP
e0
a0
e0
80
00
ff
aa
2a
80
e0
af
ea
0a
0a
0a
0a
ENDCHAR
STARTCHAR U+2887
ENCODING 10375
SWIDTH 1000 0
DWIDTH 8 0
BBX 8 16 0 -2
BITMAP
ff
81
81
80
00
ff
aa
2a
80
e0
af
ea
0a
7a
4a
6a
ENDCHAR
STARTCHAR U+2888
ENCODING 10376
SWIDTH 1000 0
DWIDTH 8 0
BBX 8 16 0 -2
BITMAP
00
00
18
18
00
38
08
08
ff
89
89
f9
01
01
01
01
ENDCHAR
STARTCHAR U+2889
ENCODING 10377
SWIDTH 1000 0
DWIDTH 8 0
BBX 8 16 0 -2
BITMAP
00
0f
0a
0a
0a
6a
22
22
fa
aa
aa
ea
08
08
08
08
ENDCHAR
STARTCHAR U+288A
ENCODING 10378
SWIDTH 1000 0
DWIDTH 8 0
BBX 8 16 0 -2
BITMAP
1f
11
11
11
11
39
09
08
ff
89
89
f9
01
01
01
01
ENDCHAR
STARTCHAR U+288B
ENCODING 10379
SWIDTH 1000 0
DWIDTH 8 0
BBX 8 16 0 -2
BITMAP
1f
11
15
17
10
38
08
08
ff
89
89
f9
01
01
01
01
ENDCHAR
STARTCHAR U+288C
ENCODING 10380
SWIDTH 1000 0
DWIDTH 8 0
BBX 8 16 0 -2
BITMAP
00
00
00
00
00
31
11
11
7d
55
55
75
05
ff
84
fc
ENDCHAR
STARTCHAR U+288D
ENCODING 10381
SWIDTH 1000 0
DWIDTH 8 0
BBX 8 16 0 -2
BITMAP
00
0f
0a
0a
00
31
11
11
7d
55
55
75
05
ff
84
fc
ENDCHAR
STARTCHAR U+288E
ENCODING 10382
SWIDTH 1000 0
DWIDTH 8 0
BBX 8 16 0 -2
BITMAP
ff
81
81
9c
84
bf
a5
bd
81
9d
94
fc
00
00
00
00
ENDCHAR
STARTCHAR U+288F
ENCODING 10383
SWIDTH 1000 0
DWIDTH 8 0
BBX 8 16 0 -2
BITMAP
e0
a0
e0
8c
84
bf
a5
bd
81
9d
94
fc
00
00
00
00
ENDCHAR
STARTCHAR U+2890
ENCODING 10384
SWIDTH 1000 0
DWIDTH 8 0
BBX 8 16 0 -2
BITMAP
ff
95
95
9d
e1
a3
e0
0c
04
3f
25
3d
01
01
01
01
ENDCHAR
STARTCHAR U+2891
ENCODING 10385
SWIDTH 1000 0
DWIDTH 8 0
BBX 8 16 0 -2
BITMAP
ff
81
81
9c
84
bf
a5
bd
81
e0
af
ea
0a
0a
0a
0a
ENDCHAR
STARTCHAR U+2892
ENCODING 10386
SWIDTH 1000 0
DWIDTH 8 0
BBX 8 16 0 -2
BITMAP
e0
a0
e0
8c
84
bf
a5
bd
81
e0
af
ea
0a
0a
0a
0a
ENDCHAR
STARTCHAR U+2893
ENCODING 10387
SWIDTH 1000 0
DWIDTH 8 0
BBX 8 16 0 -2
BITMAP
ff
81
81
9c
84
bf
a5
bd
81
e0
af
ea
0a
7a
4a
6a
ENDCHAR
STARTCHAR U+2894
ENCODING 10388
SWIDTH 1000 0
DWIDTH 8 0
BBX 8 16 0 -2
BITMAP
00
00
18
18
00
7c
48
48
4f
49
49
49
01
01
01
01
ENDCHAR
STARTCHAR U+2895
ENCODING 10389
SWIDTH 1000 0
DWIDTH 8 0
BBX 8 16 0 -2
BITMAP
00
0f
0a
0a
02
f2
a2
a2
ba
aa
aa
aa
08
08
08
08
ENDCHAR
STARTCHAR U+2896
ENCODING 10390
SWIDTH 1000 0
DWIDTH 8 0
BBX 8 16 0 -2
BITMAP
1f
11
11
11
11
7c
48
48
4f
49
49
49
01
01
01
01
ENDCHAR
STARTCHAR U+2897
ENCODING 10391
SWIDTH 1000 0
DWIDTH 8 0
BBX 8 16 0 -2
BITMAP
1f
15
17
10
10
7c
48
48
4f
49
49
49
01
01
01
01
ENDCHAR
STARTCHAR U+2898
ENCODING 10392
SWIDTH 1000 0
DWIDTH 8 0
BBX 8 16 0 -2
BITMAP
00
00
00
00
00
f9
91
91
9d
95
95
95
05
ff
84
fc
ENDCHAR
STARTCHAR U+2899
ENCODING 10393
SWIDTH 1000 0
DWIDTH 8 0
BBX 8 16 0 -2
BITMAP
00
0f
0a
0a
00
f9
91
91
91
9d
95
95
05
ff
84
fc
ENDCHAR
STARTCHAR U+289A
ENCODING 10394
SWIDTH 1000 0
DWIDTH 8 0
BBX 8 16 0 -2
BITMAP
ff
81
80
9e
94
97
95
81
81
9c
94
fc
00
00
00
00
ENDCHAR
STARTCHAR U+289B
ENCODING 10395
SWIDTH 1000 0
DWIDTH 8 0
BBX 8 16 0 -2
BITMAP
e0
a0
e0
9e
94
97
95
81
81
9c
94
fc
00
00
00
00
ENDCHAR
STARTCHAR U+289C
ENCODING 10396
SWIDTH 1000 0
DWIDTH 8 0
BBX 8 16 0 -2
BITMAP
ff
95
95
9d
e1
a3
e0
00
3c
28
2e
2a
02
02
02
02
ENDCHAR
STARTCHAR U+289D
ENCODING 10397
SWIDTH 1000 0
DWIDTH 8 0
BBX 8 16 0 -2
BITMAP
ff
81
80
9e
94
97
95
81
81
e0
af
ea
0a
0a
0a
0a
ENDCHAR
STARTCHAR U+289E
ENCODING 10398
SWIDTH 1000 0
DWIDTH 8 0
BBX 8 16 0 -2
BITMAP
e0
a0
e0
9e
94
97
95
81
81
e0
af
ea
0a
0a
0a
0a
ENDCHAR
STARTCHAR U+289F
ENCODING 10399
SWIDTH 1000 0
DWIDTH 8 0
BBX 8 16 0 -2
BITMAP
ff
81
80
9e
94
97
95
81
81
e0
af
ea
0a
7a
4a
6a
ENDCHAR
STARTCHAR U+28A0
ENCODING 10400
SWIDTH 1000 0
DWIDTH 8 0
BBX 8 16 0 -2
BITMAP
00
00
18
18
00
81
81
81
81
81
81
ff
00
00
00
00
ENDCHAR
STARTCHAR U+28A1
ENCODING 10401
SWIDTH 1000 0
DWIDTH 8 0
BBX 8 16 0 -2
BITMAP
00
0f
0a
0a
02
8a
8a
8a
8a
8a
8a
fa
00
00
00
00
ENDCHAR
STARTCHAR U+28A2
ENCODING 10402
SWIDTH 1000 0
DWIDTH 8 0
BBX 8 16 0 -2
BITMAP
1f
11
11
11
1d
85
85
85
85
85
85
fd
00
00
00
00
ENDCHAR
STARTCHAR U+28A3
ENCODING 10403
SWIDTH 1000 0
DWIDTH 8 0
BBX 8 16 0 -2
BITMAP
1f
15
17
10
1f
81
81
81
81
81
81
ff
00
00
00
00
ENDCHAR
STARTCHAR U+28A4
ENCODING 10404
SWIDTH 1000 0
DWIDTH 8 0
BBX 8 16 0 -2
BITMAP
00
00
00
00
00
81
81
81
81
81
81
ff
01
01
01
01
ENDCHAR
STARTCHAR U+28A5
ENCODING 10405
SWIDTH 1000 0
DWIDTH 8 0
BBX 8 16 0 -2
BITMAP
00
00
00
00
00
82
82
82
82
82
82
fe
02
f3
81
ff
ENDCHAR
STARTCHAR U+28A6
ENCODING 10406
SWIDTH 1000 0
DWIDTH 8 0
BBX 8 16 0 -2
BITMAP
ff
81
81
80
a2
a2
a2
be
80
9c
94
fc
00
00
00
00
ENDCHAR
STARTCHAR U+28A7
ENCODING 10407
SWIDTH 1000 0
DWIDTH 8 0
BBX 8 16 0 -2
BITMAP
e0
a0
e0
80
a2
a2
a2
be
80
9c
94
fc
00
00
00
00
ENDCHAR
STARTCHAR U+28A8
ENCODING 10408
SWIDTH 1000 0
DWIDTH 8 0
BBX 8 16 0 -2
BITMAP
ff
95
95
9d
e1
a3
e0
00
42
42
42
7e
00
00
00
00
ENDCHAR
STARTCHAR U+28A9
ENCODING 10409
SWIDTH 1000 0
DWIDTH 8 0
BBX 8 16 0 -2
BITMAP
ff
81
81
80
a2
a2
a2
be
80
e0
af
ea
0a
0a
0a
0a
ENDCHAR
STARTCHAR U+28AA
ENCODING 10410
SWIDTH 1000 0
DWIDTH 8 0
BBX 8 16 0 -2
BITMAP
e0
a0
e0
80
a2
a2
a2
be
80
e0
af
ea
0a
0a
0a
0a
ENDCHAR
STARTCHAR U+28AB
ENCODING 10411
SWIDTH 1000 0
DWIDTH 8 0
BBX 8 16 0 -2
BITMAP
ff
81
81
80
a2
a2
a2
be
80
e0
af
ea
0a
7a
4a
6a
ENDCHAR
STARTCHAR U+28AC
ENCODING 10412
SWIDTH 1000 0
DWIDTH 8 0
BBX 8 16 0 -2
BITMAP
00
00
18
18
00
9f
91
91
91
91
91
ff
00
00
00
00
ENDCHAR
STARTCHAR U+28AD
ENCODING 10413
SWIDTH 1000 0
DWIDTH 8 0
BBX 8 16 0 -2
BITMAP
00
0f
0a
0a
02
ba
aa
aa
aa
aa
aa
fa
00
00
00
00
ENDCHAR
STARTCHAR U+28AE
ENCODING 10414
SWIDTH 1000 0
DWIDTH 8 0
BBX 8 16 0 -2
BITMAP
1f
11
11
11
11
bd
a5
a5
a5
a5
a5
fd
00
00
00
00
ENDCHAR
STARTCHAR U+28AF
ENCODING 10415
SWIDTH 1000 0
DWIDTH 8 0
BBX 8 16 0 -2
BITMAP
1f
15
17
10
10
bf
a1
a1
a1
a1
a1
ff
00
00
00
00
ENDCHAR
STARTCHAR U+28B0
ENCODING 10416
SWIDTH 1000 0
DWIDTH 8 0
BBX 8 16 0 -2
BITMAP
00
00
00
00
00
af
a9
a9
a9
a9
a9
bf
88
88
88
f8
ENDCHAR
STARTCHAR U+28B1
ENCODING 10417
SWIDTH 1000 0
DWIDTH 8 0
BBX 8 16 0 -2
BITMAP
e0
a0
e0
80
80
af
a9
a9
a9
a9
a9
bf
88
88
88
f8
ENDCHAR
STARTCHAR U+28B2
ENCODING 10418
SWIDTH 1000 0
DWIDTH 8 0
BBX 8 16 0 -2
BITMAP
ff
81
81
80
ae
aa
aa
be
80
9c
94
fc
00
00
00
00
ENDCHAR
STARTCHAR U+28B3
ENCODING 10419
SWIDTH 1000 0
DWIDTH 8 0
BBX 8 16 0 -2
BITMAP
e0
a0
e0
80
ae
aa
aa
be
80
9c
94
fc
00
00
00
00
ENDCHAR
STARTCHAR U+28B4
ENCODING 10420
SWIDTH 1000 0
DWIDTH 8 0
BBX 8 16 0 -2
BITMAP
ff
95
95
9d
e1
a3
e0
00
5e
52
52
7e
00
00
00
00
ENDCHAR
STARTCHAR U+28B5
ENCODING 10421
SWIDTH 1000 0
DWIDTH 8 0
BBX 8 16 0 -2
BITMAP
ff
81
81
80
ae
aa
aa
be
80
e0
af
ea
0a
0a
0a
0a
ENDCHAR
STARTCHAR U+28B6
ENCODING 10422
SWIDTH 1000 0
DWIDTH 8 0
BBX 8 16 0 -2
BITMAP
e0
a0
e0
80
ae
aa
aa
be
80
e0
af
ea
0a
0a
0a
0a
ENDCHAR
STARTCHAR U+28B7
ENCODING 10423
SWIDTH 1000 0
DWIDTH 8 0
BBX 8 16 0 -2
BITMAP
ff
81
81
80
ae
aa
aa
be
80
e0
af
ea
0a
7a
4a
6a
ENDCHAR
STARTCHAR U+28B8
ENCODING 10424
SWIDTH 1000 0
DWIDTH 8 0
BBX 8 16 0 -2
BITMAP
00
00
18
18
00
91
91
91
91
91
91
ff
00
00
00
00
ENDCHAR
STARTCHAR U+28B9
ENCODING 10425
SWIDTH 1000 0
DWIDTH 8 0
BBX 8 16 0 -2
BITMAP
00
0f
0a
0a
02
aa
aa
aa
aa
aa
aa
fa
00
00
00
00
ENDCHAR
STARTCHAR U+28BA
ENCODING 10426
SWIDTH 1000 0
DWIDTH 8 0
BBX 8 16 0 -2
BITMAP
3f
21
21
3d
05
a5
a5
a5
a5
a5
a5
fd
00
00
00
00
ENDCHAR
STARTCHAR U+28BB
ENCODING 10427
SWIDTH 1000 0
DWIDTH 8 0
BBX 8 16 0 -2
BITMAP
1f
15
17
10
1f
81
91
91
91
91
91
ff
00
00
00
00
ENDCHAR
STARTCHAR U+28BC
ENCODING 10428
SWIDTH 1000 0
DWIDTH 8 0
BBX 8 16 0 -2
BITMAP
00
00
00
00
00
91
91
91
91
91
91
ff
01
01
01
01
ENDCHAR
STARTCHAR U+28BD
ENCODING 10429
SWIDTH 1000 0
DWIDTH 8 0
BBX 8 16 0 -2
BITMAP
00
00
00
00
00
92
92
92
92
92
92
fe
02
f3
81
ff
ENDCHAR
STARTCHAR U+28BE
ENCODING 10430
SWIDTH 1000 0
DWIDTH 8 0
BBX 8 16 0 -2
BITMAP
ff
81
81
80
aa
aa
aa
be
80
9c
94
fc
00
00
00
00
ENDCHAR
STARTCHAR U+28BF
ENCODING 10431
SWIDTH 1000 0
DWIDTH 8 0
BBX 8 16 0 -2
BITMAP
e0
a0
e0
80
aa
aa
aa
be
80
9c
94
fc
00
00
00
00
ENDCHAR
STARTCHAR U+28C0
ENCODING 10432
SWIDTH 1000 0
DWIDTH 8 0
BBX 8 16 0 -2
BITMAP
ff
95
95
9d
e1
a3
e0
00
52
52
52
7e
00
00
00
00
ENDCHAR
STARTCHAR U+28C1
ENCODING 10433
SWIDTH 1000 0
DWIDTH 8 0
BBX 8 16 0 -2
BITMAP
ff
81
81
80
aa
aa
aa
be
80
e0
af
ea
0a
0a
0a
0a
ENDCHAR
STARTCHAR U+28C2
ENCODING 10434
SWIDTH 1000 0
DWIDTH 8 0
BBX 8 16 0 -2
BITMAP
e0
a0
e0
80
aa
aa
aa
be
80
e0
af
ea
0a
0a
0a
0a
ENDCHAR
STARTCHAR U+28C3
ENCODING 10435
SWIDTH 1000 0
DWIDTH 8 0
BBX 8 16 0 -2
BITMAP
ff
81
81
80
aa
aa
aa
be
80
e0
af
ea
0a
7a
4a
6a
ENDCHAR
STARTCHAR U+28C4
ENCODING 10436
SWIDTH 1000 0
DWIDTH 8 0
BBX 8 16 0 -2
BITMAP
00
00
18
18
00
7f
44
44
44
44
44
44
04
04
04
fc
ENDCHAR
STARTCHAR U+28C6
ENCODING 10438
SWIDTH 1000 0
DWIDTH 8 0
BBX 8 16 0 -2
BITMAP
00
0f
0a
0a
02
f2
a2
a2
a2
a2
a2
a2
20
20
20
e0
ENDCHAR
STARTCHAR U+28C7
ENCODING 10439
SWIDTH 1000 0
DWIDTH 8 0
BBX 8 16 0 -2
BITMAP
1f
11
11
11
11
fd
91
91
91
91
91
91
10
10
10
f0
ENDCHAR
STARTCHAR U+28C8
ENCODING 10440
SWIDTH 1000 0
DWIDTH 8 0
BBX 8 16 0 -2
BITMAP
1f
15
17
10
10
fc
90
90
90
90
90
90
10
10
10
f0
ENDCHAR
STARTCHAR U+28C9
ENCODING 10441
SWIDTH 1000 0
DWIDTH 8 0
BBX 8 16 0 -2
BITMAP
00
00
00
00
00
bc
a8
a8
af
a9
a9
a9
81
81
ff
00
ENDCHAR
STARTCHAR U+28CA
ENCODING 10442
SWIDTH 1000 0
DWIDTH 8 0
BBX 8 16 0 -2
BITMAP
e0
a0
e0
80
80
bc
a8
a8
af
a9
a9
a9
81
81
ff
00
ENDCHAR
STARTCHAR U+28CB
ENCODING 10443
SWIDTH 1000 0
DWIDTH 8 0
BBX 8 16 0 -2
BITMAP
ff
81
80
9e
94
94
84
9c
80
9c
94
fc
00
00
00
00
ENDCHAR
STARTCHAR U+28CC
ENCODING 10444
SWIDTH 1000 0
DWIDTH 8 0
BBX 8 16 0 -2
BITMAP
e0
a0
e0
9e
94
94
84
9c
80
9c
94
fc
00
00
00
00
ENDCHAR
STARTCHAR U+28CD
ENCODING 10445
SWIDTH 1000 0
DWIDTH 8 0
BBX 8 16 0 -2
BITMAP
ff
95
95
9d
e1
a3
e0
00
7e
48
48
48
08
08
08
78
ENDCHAR
STARTCHAR U+28CE
ENCODING 10446
SWIDTH 1000 0
DWIDTH 8 0
BBX 8 16 0 -2
BITMAP
ff
81
80
9e
94
94
84
9c
80
e0
af
ea
0a
0a
0a
0a
ENDCHAR
STARTCHAR U+28CF
ENCODING 10447
SWIDTH 1000 0
DWIDTH 8 0
BBX 8 16 0 -2
BITMAP
e0
a0
e0
9e
94
94
84
9c
80
e0
af
ea
0a
0a
0a
0a
ENDCHAR
STARTCHAR U+28D0
ENCODING 10448
SWIDTH 1000 0
DWIDTH 8 0
BBX 8 16 0 -2
BITMAP
ff
81
80
9e
94
94
84
9c
80
e0
af
ea
0a
7a
4a
6a
ENDCHAR
STARTCHAR U+28D1
ENCODING 10449
SWIDTH 1000 0
DWIDTH 8 0
BBX 8 16 0 -2
BITMAP
00
00
18
18
00
42
a1
91
89
c9
a5
42
00
00
00
00
ENDCHAR
STARTCHAR U+28D2
ENCODING 10450
SWIDTH 1000 0
DWIDTH 8 0
BBX 8 16 0 -2
BITMAP
00
0f
0a
0a
00
42
a1
91
89
c9
a5
42
00
00
00
00
ENDCHAR
STARTCHAR U+28D3
ENCODING 10451
SWIDTH 1000 0
DWIDTH 8 0
BBX 8 16 0 -2
BITMAP
1f
11
11
10
1c
42
a1
91
89
c9
a5
42
00
00
00
00
ENDCHAR
STARTCHAR U+28D4
ENCODING 10452
SWIDTH 1000 0
DWIDTH 8 0
BBX 8 16 0 -2
BITMAP
1f
15
17
10
1c
42
a1
91
89
c9
a5
42
00
00
00
00
ENDCHAR
STARTCHAR U+28D5
ENCODING 10453
SWIDTH 1000 0
DWIDTH 8 0
BBX 8 16 0 -2
BITMAP
00
00
00
00
00
42
a1
91
89
c9
a5
42
02
ff
82
fe
ENDCHAR
STARTCHAR U+28D6
ENCODING 10454
SWIDTH 1000 0
DWIDTH 8 0
BBX 8 16 0 -2
BITMAP
00
0f
0a
0a
00
42
a1
91
89
c9
a5
42
02
ff
82
fe
ENDCHAR
STARTCHAR U+28D7
ENCODING 10455
SWIDTH 1000 0
DWIDTH 8 0
BBX 8 16 0 -2
BITMAP
ff
81
80
82
99
a5
b5
b2
80
9c
94
fc
00
00
00
00
ENDCHAR
STARTCHAR U+28D8
ENCODING 10456
SWIDTH 1000 0
DWIDTH 8 0
BBX 8 16 0 -2
BITMAP
e0
a0
e0
82
99
a5
b5
b2
80
9c
94
fc
00
00
00
00
ENDCHAR
STARTCHAR U+28D9
ENCODING 10457
SWIDTH 1000 0
DWIDTH 8 0
BBX 8 16 0 -2
BITMAP
ff
95
95
9d
e1
a3
e0
02
31
49
69
66
00
00
00
00
ENDCHAR
STARTCHAR U+28DA
ENCODING 10458
SWIDTH 1000 0
DWIDTH 8 0
BBX 8 16 0 -2
BITMAP
ff
81
80
82
99
a5
b5
b2
80
e0
af
ea
0a
0a
0a
0a
ENDCHAR
STARTCHAR U+28DB
ENCODING 10459
SWIDTH 1000 0
DWIDTH 8 0
BBX 8 16 0 -2
BITMAP
e0
a0
e0
82
99
a5
b5
b2
80
e0
af
ea
0a
0a
0a
0a
ENDCHAR
STARTCHAR U+28DC
ENCODING 10460
SWIDTH 1000 0
DWIDTH 8 0
BBX 8 16 0 -2
BITMAP
ff
81
80
82
99
a5
b5
b2
80
e0
af
ea
0a
7a
4a
6a
ENDCHAR
STARTCHAR U+28DD
ENCODING 10461
SWIDTH 1000 0
DWIDTH 8 0
BBX 8 16 0 -2
BITMAP
00
00
18
18
00
f9
89
89
89
e9
a9
ef
00
00
00
00
ENDCHAR
STARTCHAR U+28DE
ENCODING 10462
SWIDTH 1000 0
DWIDTH 8 0
BBX 8 16 0 -2
BITMAP
00
0f
0a
0a
00
f9
89
89
89
e9
a9
ef
00
00
00
00
ENDCHAR
STARTCHAR U+28C5
ENCODING 10437
SWIDTH 1000 0
DWIDTH 8 0
BBX 8 16 0 -2
BITMAP
3f
21
21
3d
05
05
f5
95
95
95
d5
dd
00
00
00
00
ENDCHAR
STARTCHAR U+28DF
ENCODING 10463
SWIDTH 1000 0
DWIDTH 8 0
BBX 8 16 0 -2
BITMAP
3f
25
27
20
3f
01
f1
91
91
91
d1
df
00
00
00
00
ENDCHAR
STARTCHAR U+28E0
ENCODING 10464
SWIDTH 1000 0
DWIDTH 8 0
BBX 8 16 0 -2
BITMAP
00
00
00
00
00
f9
89
89
89
e9
a9
ef
01
01
01
01
ENDCHAR
STARTCHAR U+28E1
ENCODING 10465
SWIDTH 1000 0
DWIDTH 8 0
BBX 8 16 0 -2
BITMAP
00
00
00
00
00
fa
8a
8a
8a
ea
aa
ee
02
fb
81
ff
ENDCHAR
STARTCHAR U+28E2
ENCODING 10466
SWIDTH 1000 0
DWIDTH 8 0
BBX 8 16 0 -2
BITMAP
ff
81
81
80
bd
a5
b5
b7
80
9c
94
fc
00
00
00
00
ENDCHAR
STARTCHAR U+28E3
ENCODING 10467
SWIDTH 1000 0
DWIDTH 8 0
BBX 8 16 0 -2
BITMAP
e0
a0
e0
80
bd
a5
b5
b7
80
9c
94
fc
00
00
00
00
ENDCHAR
STARTCHAR U+28E4
ENCODING 10468
SWIDTH 1000 0
DWIDTH 8 0
BBX 8 16 0 -2
BITMAP
ff
95
95
9d
e1
a3
e0
00
7a
4a
6a
6e
00
00
00
00
ENDCHAR
STARTCHAR U+28E5
ENCODING 10469
SWIDTH 1000 0
DWIDTH 8 0
BBX 8 16 0 -2
BITMAP
ff
81
81
80
bd
a5
b5
b7
80
e0
af
ea
0a
0a
0a
0a
ENDCHAR
STARTCHAR U+28E6
ENCODING 10470
SWIDTH 1000 0
DWIDTH 8 0
BBX 8 16 0 -2
BITMAP
e0
a0
e0
80
bd
a5
b5
b7
80
e0
af
ea
0a
0a
0a
0a
ENDCHAR
STARTCHAR U+28E7
ENCODING 10471
SWIDTH 1000 0
DWIDTH 8 0
BBX 8 16 0 -2
BITMAP
ff
81
81
80
bd
a5
b5
b7
80
e0
af
ea
0a
7a
4a
6a
ENDCHAR
STARTCHAR U+28E8
ENCODING 10472
SWIDTH 1000 0
DWIDTH 8 0
BBX 8 16 0 -2
BITMAP
00
00
18
18
00
9f
91
91
91
91
91
ff
10
1c
10
70
ENDCHAR
STARTCHAR U+28E9
ENCODING 10473
SWIDTH 1000 0
DWIDTH 8 0
BBX 8 16 0 -2
BITMAP
00
0f
0a
0a
02
ba
aa
aa
aa
aa
aa
fa
20
30
20
60
ENDCHAR
STARTCHAR U+28EA
ENCODING 10474
SWIDTH 1000 0
DWIDTH 8 0
BBX 8 16 0 -2
BITMAP
1f
11
11
10
10
bf
a1
a1
a1
a1
a1
ff
10
1c
10
70
ENDCHAR
STARTCHAR U+28EB
ENCODING 10475
SWIDTH 1000 0
DWIDTH 8 0
BBX 8 16 0 -2
BITMAP
1f
15
17
10
10
bf
a1
a1
a1
a1
a1
ff
10
1c
10
70
ENDCHAR
STARTCHAR U+28EC
ENCODING 10476
SWIDTH 1000 0
DWIDTH 8 0
BBX 8 16 0 -2
BITMAP
00
00
00
00
00
af
a9
a9
a9
a9
a9
bf
88
8e
88
f8
ENDCHAR
STARTCHAR U+28ED
ENCODING 10477
SWIDTH 1000 0
DWIDTH 8 0
BBX 8 16 0 -2
BITMAP
e0
a0
e0
80
80
af
a9
a9
a9
a9
a9
bf
88
8e
88
f8
ENDCHAR
STARTCHAR U+28EE
ENCODING 10478
SWIDTH 1000 0
DWIDTH 8 0
BBX 8 16 0 -2
BITMAP
ff
80
87
95
9f
84
86
8c
80
9c
94
fc
00
00
00
00
ENDCHAR
STARTCHAR U+28EF
ENCODING 10479
SWIDTH 1000 0
DWIDTH 8 0
BBX 8 16 0 -2
BITMAP
e0
a0
e7
95
9f
84
86
8c
80
9c
94
fc
00
00
00
00
ENDCHAR
STARTCHAR U+28F0
ENCODING 10480
SWIDTH 1000 0
DWIDTH 8 0
BBX 8 16 0 -2
BITMAP
ff
95
95
9d
e1
a3
e0
00
5e
52
52
7e
10
1c
10
30
ENDCHAR
STARTCHAR U+28F1
ENCODING 10481
SWIDTH 1000 0
DWIDTH 8 0
BBX 8 16 0 -2
BITMAP
ff
80
87
95
9f
84
86
8c
80
e0
af
ea
0a
0a
0a
0a
ENDCHAR
STARTCHAR U+28F2
ENCODING 10482
SWIDTH 1000 0
DWIDTH 8 0
BBX 8 16 0 -2
BITMAP
e0
a0
e7
95
9f
84
86
8c
80
e0
af
ea
0a
0a
0a
0a
ENDCHAR
STARTCHAR U+28F3
ENCODING 10483
SWIDTH 1000 0
DWIDTH 8 0
BBX 8 16 0 -2
BITMAP
ff
80
87
95
9f
84
86
8c
80
e0
af
ea
0a
7a
4a
6a
ENDCHAR
STARTCHAR U+28F4
ENCODING 10484
SWIDTH 1000 0
DWIDTH 8 0
BBX 8 16 0 -2
BITMAP
00
00
18
18
00
1f
12
f2
92
92
92
d2
00
00
00
00
ENDCHAR
STARTCHAR U+28F5
ENCODING 10485
SWIDTH 1000 0
DWIDTH 8 0
BBX 8 16 0 -2
BITMAP
00
0f
0a
0a
00
1f
12
f2
92
92
92
d2
00
00
00
00
ENDCHAR
STARTCHAR U+28F6
ENCODING 10486
SWIDTH 1000 0
DWIDTH 8 0
BBX 8 16 0 -2
BITMAP
1f
11
11
11
11
3d
29
e9
a9
a9
89
c9
00
00
00
00
ENDCHAR
STARTCHAR U+28F7
ENCODING 10487
SWIDTH 1000 0
DWIDTH 8 0
BBX 8 16 0 -2
BITMAP
1f
15
17
10
10
3c
28
e8
a8
a8
88
c8
00
00
00
00
ENDCHAR
STARTCHAR U+28F8
ENCODING 10488
SWIDTH 1000 0
DWIDTH 8 0
BBX 8 16 0 -2
BITMAP
00
00
00
00
00
8f
8a
ba
aa
aa
a2
b3
81
81
ff
00
ENDCHAR
STARTCHAR U+28F9
ENCODING 10489
SWIDTH 1000 0
DWIDTH 8 0
BBX 8 16 0 -2
BITMAP
e0
a0
e0
80
80
8f
8a
ba
aa
aa
a2
b3
81
81
ff
00
ENDCHAR
STARTCHAR U+28FA
ENCODING 10490
SWIDTH 1000 0
DWIDTH 8 0
BBX 8 16 0 -2
BITMAP
ff
81
80
8f
ba
aa
a2
b2
80
9c
94
fc
00
00
00
00
ENDCHAR
STARTCHAR U+28FB
ENCODING 10491
SWIDTH 1000 0
DWIDTH 8 0
BBX 8 16 0 -2
BITMAP
e0
a0
e0
8f
ba
aa
a2
b2
80
9c
94
fc
00
00
00
00
ENDCHAR
STARTCHAR U+28FC
ENCODING 10492
SWIDTH 1000 0
DWIDTH 8 0
BBX 8 16 0 -2
BITMAP
ff
95
95
9d
e1
a3
e0
0f
0a
7a
4a
6a
00
00
00
00
ENDCHAR
STARTCHAR U+28FD
ENCODING 10493
SWIDTH 1000 0
DWIDTH 8 0
BBX 8 16 0 -2
BITMAP
ff
81
80
8f
ba
aa
a2
b2
80
e0
af
ea
0a
0a
0a
0a
ENDCHAR
STARTCHAR U+28FE
ENCODING 10494
SWIDTH 1000 0
DWIDTH 8 0
BBX 8 16 0 -2
BITMAP
e0
a0
e0
8f
ba
aa
a2
b2
80
e0
af
ea
0a
0a
0a
0a
ENDCHAR
STARTCHAR U+28FF
ENCODING 10495
SWIDTH 1000 0
DWIDTH 8 0
BBX 8 16 0 -2
BITMAP
ff
81
80
8f
ba
aa
a2
b2
80
e0
af
ea
0a
7a
4a
6a
ENDCHAR
STARTCHAR U+2800
ENCODING 10240
SWIDTH 1000 0
DWIDTH 8 0
BBX 8 16 0 -2
BITMAP
00
00
18
18
00
ff
91
91
91
91
91
91
01
01
01
ff
ENDCHAR
STARTCHAR U+2801
ENCODING 10241
SWIDTH 1000 0
DWIDTH 8 0
BBX 8 16 0 -2
BITMAP
00
0f
0a
0a
02
fa
aa
aa
aa
aa
aa
aa
08
08
08
f8
ENDCHAR
STARTCHAR U+2802
ENCODING 10242
SWIDTH 1000 0
DWIDTH 8 0
BBX 8 16 0 -2
BITMAP
1f
11
11
11
11
fd
a5
a5
a5
a5
a5
a5
04
04
04
fc
ENDCHAR
STARTCHAR U+2803
ENCODING 10243
SWIDTH 1000 0
DWIDTH 8 0
BBX 8 16 0 -2
BITMAP
1f
15
17
10
10
fc
a4
a4
a4
a4
a4
a4
04
04
04
fc
ENDCHAR
STARTCHAR U+2804
ENCODING 10244
SWIDTH 1000 0
DWIDTH 8 0
BBX 8 16 0 -2
BITMAP
00
00
00
00
00
fd
a5
a5
a5
a5
a5
a5
05
ff
84
fc
ENDCHAR
STARTCHAR U+2805
ENCODING 10245
SWIDTH 1000 0
DWIDTH 8 0
BBX 8 16 0 -2
BITMAP
00
0f
0a
0a
00
fd
a5
a5
a5
a5
a5
a5
05
ff
84
fc
ENDCHAR
STARTCHAR U+2806
ENCODING 10246
SWIDTH 1000 0
DWIDTH 8 0
BBX 8 16 0 -2
BITMAP
ff
81
80
9f
95
95
81
9f
80
9c
94
fc
00
00
00
00
ENDCHAR
STARTCHAR U+2807
ENCODING 10247
SWIDTH 1000 0
DWIDTH 8 0
BBX 8 16 0 -2
BITMAP
e0
a0
e0
9f
95
95
81
9f
80
9c
94
fc
00
00
00
00
ENDCHAR
STARTCHAR U+2808
ENCODING 10248
SWIDTH 1000 0
DWIDTH 8 0
BBX 8 16 0 -2
BITMAP
ff
95
95
9d
e1
a3
e0
00
7e
52
52
52
02
02
02
7e
ENDCHAR
STARTCHAR U+2809
ENCODING 10249
SWIDTH 1000 0
DWIDTH 8 0
BBX 8 16 0 -2
BITMAP
ff
81
80
9f
95
95
81
9f
80
e0
af
ea
0a
0a
0a
0a
ENDCHAR
STARTCHAR U+280A
ENCODING 10250
SWIDTH 1000 0
DWIDTH 8 0
BBX 8 16 0 -2
BITMAP
e0
a0
e0
9f
95
95
81
9f
80
e0
af
ea
0a
0a
0a
0a
ENDCHAR
STARTCHAR U+280B
ENCODING 10251
SWIDTH 1000 0
DWIDTH 8 0
BBX 8 16 0 -2
BITMAP
ff
81
80
9f
95
95
81
9f
80
e0
af
ea
0a
7a
4a
6a
ENDCHAR
STARTCHAR U+280C
ENCODING 10252
SWIDTH 1000 0
DWIDTH 8 0
BBX 8 16 0 -2
BITMAP
00
00
18
18
00
ff
92
92
92
12
12
12
00
00
00
00
ENDCHAR
STARTCHAR U+280D
ENCODING 10253
SWIDTH 1000 0
DWIDTH 8 0
BBX 8 16 0 -2
BITMAP
00
0f
0a
0a
00
ff
92
92
92
12
12
12
00
00
00
00
ENDCHAR
STARTCHAR U+280E
ENCODING 10254
SWIDTH 1000 0
DWIDTH 8 0
BBX 8 16 0 -2
BITMAP
3f
21
21
20
20
ff
92
92
92
12
12
12
00
00
00
00
ENDCHAR
STARTCHAR U+280F
ENCODING 10255
SWIDTH 1000 0
DWIDTH 8 0
BBX 8 16 0 -2
BITMAP
3f
25
27
20
20
ff
92
92
92
12
12
12
00
00
00
00
ENDCHAR
STARTCHAR U+2810
ENCODING 10256
SWIDTH 1000 0
DWIDTH 8 0
BBX 8 16 0 -2
BITMAP
00
00
00
00
00
ff
92
92
92
12
12
12
02
ff
82
fe
ENDCHAR
STARTCHAR U+2811
ENCODING 10257
SWIDTH 1000 0
DWIDTH 8 0
BBX 8 16 0 -2
BITMAP
00
0f
0a
0a
00
ff
92
92
92
12
12
12
02
ff
82
fe
ENDCHAR
STARTCHAR U+2812
ENCODING 10258
SWIDTH 1000 0
DWIDTH 8 0
BBX 8 16 0 -2
BITMAP
ff
81
81
80
80
bf
aa
8a
80
9c
94
fc
00
00
00
00
ENDCHAR
STARTCHAR U+2813
ENCODING 10259
SWIDTH 1000 0
DWIDTH 8 0
BBX 8 16 0 -2
BITMAP
e0
a0
e0
80
80
bf
aa
8a
80
9c
94
fc
00
00
00
00
ENDCHAR
STARTCHAR U+2814
ENCODING 10260
SWIDTH 1000 0
DWIDTH 8 0
BBX 8 16 0 -2
BITMAP
ff
95
95
9d
e1
a3
e0
00
ff
92
92
12
00
00
00
00
ENDCHAR
STARTCHAR U+2815
ENCODING 10261
SWIDTH 1000 0
DWIDTH 8 0
BBX 8 16 0 -2
BITMAP
ff
81
81
80
80
bf
aa
8a
80
e0
af
ea
0a
0a
0a
0a
ENDCHAR
STARTCHAR U+2816
ENCODING 10262
SWIDTH 1000 0
DWIDTH 8 0
BBX 8 16 0 -2
BITMAP
e0
a0
e0
80
80
bf
aa
8a
80
e0
af
ea
0a
0a
0a
0a
ENDCHAR
STARTCHAR U+2817
ENCODING 10263
SWIDTH 1000 0
DWIDTH 8 0
BBX 8 16 0 -2
BITMAP
ff
81
81
80
80
bf
aa
8a
80
e0
af
ea
0a
7a
4a
6a
ENDCHAR
STARTCHAR U+0B83
ENCODING 2947
SWIDTH 1000 0
DWIDTH 8 0
BBX 8 16 0 -2
BITMAP
00
00
3c
24
3c
00
00
00
00
e7
a5
e7
00
00
00
00
ENDCHAR
STARTCHAR U+0B85
ENCODING 2949
SWIDTH 1000 0
DWIDTH 8 0
BBX 8 16 0 -2
BITMAP
00
00
f8
a8
ea
0a
0a
fe
8a
8a
8a
fa
00
00
00
00
ENDCHAR
STARTCHAR U+0B86
ENCODING 2950
SWIDTH 1000 0
DWIDTH 8 0
BBX 8 16 0 -2
BITMAP
00
00
f8
a8
ea
0a
0a
fe
8a
8a
8b
fb
01
11
11
1f
ENDCHAR
STARTCHAR U+0B87
ENCODING 2951
SWIDTH 1000 0
DWIDTH 8 0
BBX 8 16 0 -2
BITMAP
00
00
46
99
99
81
c3
7e
24
ff
a5
e7
00
00
00
00
ENDCHAR
STARTCHAR U+0B88
ENCODING 2952
SWIDTH 1000 0
DWIDTH 8 0
BBX 8 16 0 -2
BITMAP
00
00
00
00
00
ff
88
88
aa
88
88
88
00
00
00
00
ENDCHAR
STARTCHAR U+0B89
ENCODING 2953
SWIDTH 1000 0
DWIDTH 8 0
BBX 8 16 0 -2
BITMAP
00
00
fe
a2
e2
02
fe
80
80
80
80
ff
00
00
00
00
ENDCHAR
STARTCHAR U+0B8A
ENCODING 2954
SWIDTH 1000 0
DWIDTH 8 0
BBX 8 16 0 -2
BITMAP
00
00
fe
a2
e2
02
fe
80
bf
a5
b5
ff
00
00
00
00
ENDCHAR
STARTCHAR U+0B8E
ENCODING 2958
SWIDTH 1000 0
DWIDTH 8 0
BBX 8 16 0 -2
BITMAP
00
00
00
00
00
ff
82
82
82
e2
a2
e2
00
00
00
00
ENDCHAR
STARTCHAR U+0B8F
ENCODING 2959
SWIDTH 1000 0
DWIDTH 8 0
BBX 8 16 0 -2
BITMAP
00
00
00
00
00
ff
82
82
82
e2
a2
e2
02
02
02
fe
ENDCHAR
STARTCHAR U+0B90
ENCODING 2960
SWIDTH 1000 0
DWIDTH 8 0
BBX 8 16 0 -2
BITMAP
00
00
ff
a9
e9
01
ff
80
80
91
91
ff
00
00
00
00
ENDCHAR
STARTCHAR U+0B92
ENCODING 2962
SWIDTH 1000 0
DWIDTH 8 0
BBX 8 16 0 -2
BITMAP
00
00
ff
a1
e1
01
3f
08
08
88
88
f8
00
00
00
00
ENDCHAR
STARTCHAR U+0B93
ENCODING 2963
SWIDTH 1000 0
DWIDTH 8 0
BBX 8 16 0 -2
BITMAP
00
00
ff
a1
e1
01
3f
08
08
e8
a8
f8
00
00
00
00
ENDCHAR
STARTCHAR U+0B94
ENCODING 2964
SWIDTH 1000 0
DWIDTH 8 0
BBX 8 16 0 -2
BITMAP
00
00
ff
a1
e1
01
3f
08
08
e8
a8
f8
00
7f
4a
6a
ENDCHAR
STARTCHAR U+0B95
ENCODING 2965
SWIDTH 1000 0
DWIDTH 8 0
BBX 8 16 0 -2
BITMAP
00
00
00
00
00
38
08
08
ff
89
89
ff
00
00
00
00
ENDCHAR
STARTCHAR U+0B99
ENCODING 2969
SWIDTH 1000 0
DWIDTH 8 0
BBX 8 16 0 -2
BITMAP
00
00
00
00
00
fd
a1
a1
bd
85
85
bf
00
00
00
00
ENDCHAR
STARTCHAR U+0B9A
ENCODING 2970
SWIDTH 1000 0
DWIDTH 8 0
BBX 8 16 0 -2
BITMAP
00
00
00
00
00
38
08
08
ff
88
88
f8
00
00
00
00
ENDCHAR
STARTCHAR U+0B9E
ENCODING 2974
SWIDTH 1000 0
DWIDTH 8 0
BBX 8 16 0 -2
BITMAP
00
00
00
00
00
7f
44
44
44
77
55
75
01
41
7f
00
ENDCHAR
STARTCHAR U+0B9F
ENCODING 2975
SWIDTH 1000 0
DWIDTH 8 0
BBX 8 16 0 -2
BITMAP
00
00
00
00
00
80
80
80
80
80
80
ff
00
00
00
00
ENDCHAR
STARTCHAR U+0BA3
ENCODING 2979
SWIDTH 1000 0
DWIDTH 8 0
BBX 8 16 0 -2
BITMAP
00
00
00
00
00
ff
aa
aa
aa
2a
2a
2a
00
00
00
00
ENDCHAR
STARTCHAR U+0BA4
ENCODING 2980
SWIDTH 1000 0
DWIDTH 8 0
BBX 8 16 0 -2
BITMAP
00
00
00
00
00
38
08
08
ff
89
89
f9
01
01
01
01
ENDCHAR
STARTCHAR U+0BA8
ENCODING 2984
SWIDTH 1000 0
DWIDTH 8 0
BBX 8 16 0 -2
BITMAP
00
00
00
00
00
7c
48
48
4f
49
49
49
01
01
01
01
ENDCHAR
STARTCHAR U+0BAA
ENCODING 2986
SWIDTH 1000 0
DWIDTH 8 0
BBX 8 16 0 -2
BITMAP
00
00
00
00
00
81
81
81
81
81
81
ff
00
00
00
00
ENDCHAR
STARTCHAR U+0BAE
ENCODING 2990
SWIDTH 1000 0
DWIDTH 8 0
BBX 8 16 0 -2
BITMAP
00
00
00
00
00
9f
91
91
91
91
91
ff
00
00
00
00
ENDCHAR
STARTCHAR U+0BAF
ENCODING 2991
SWIDTH 1000 0
DWIDTH 8 0
BBX 8 16 0 -2
BITMAP
00
00
00
00
00
91
91
91
91
91
91
ff
00
00
00
00
ENDCHAR
STARTCHAR U+0BB0
ENCODING 2992
SWIDTH 1000 0
DWIDTH 8 0
BBX 8 16 0 -2
BITMAP
00
00
00
00
00
7f
44
44
44
44
44
44
04
04
04
fc
ENDCHAR
STARTCHAR U+0BB2
ENCODING 2994
SWIDTH 1000 0
DWIDTH 8 0
BBX 8 16 0 -2
BITMAP
00
00
00
00
00
42
a1
91
89
c9
a5
42
00
00
00
00
ENDCHAR
STARTCHAR U+0BB5
ENCODING 2997
SWIDTH 1000 0
DWIDTH 8 0
BBX 8 16 0 -2
BITMAP
00
00
00
00
00
f9
89
89
89
e9
a9
ef
00
00
00
00
ENDCHAR
STARTCHAR U+0BB4
ENCODING 2996
SWIDTH 1000 0
DWIDTH 8 0
BBX 8 16 0 -2
BITMAP
00
00
00
00
00
9f
91
91
91
91
91
ff
10
1c
10
70
ENDCHAR
STARTCHAR U+0BB3
ENCODING 2995
SWIDTH 1000 0
DWIDTH 8 0
BBX 8 16 0 -2
BITMAP
00
00
00
00
00
1f
12
f2
92
92
92
d2
00
00
00
00
ENDCHAR
STARTCHAR U+0BB1
ENCODING 2993
SWIDTH 1000 0
DWIDTH 8 0
BBX 8 16 0 -2
BITMAP
00
00
00
00
00
ff
91
91
91
91
91
91
01
01
01
ff
ENDCHAR
STARTCHAR U+0BA9
ENCODING 2985
SWIDTH 1000 0
DWIDTH 8 0
BBX 8 16 0 -2
BITMAP
00
00
00
00
00
ff
92
92
92
12
12
12
00
00
00
00
ENDCHAR
STARTCHAR U+0041
ENCODING 65
SWIDTH 1000 0
DWIDTH 8 0
BBX 8 16 0 -2
BITMAP
00
00
00
7c
82
82
82
fe
82
82
82
82
00
00
00
00
ENDCHAR
STARTCHAR U+0042
ENCODING 66
SWIDTH 1000 0
DWIDTH 8 0
BBX 8 16 0 -2
BITMAP
00
00
00
fc
82
82
82
fc
82
82
82
fc
00
00
00
00
ENDCHAR
STARTCHAR U+0043
ENCODING 67
SWIDTH 1000 0
DWIDTH 8 0
BBX 8 16 0 -2
BITMAP
00
00
00
7c
82
80
80
80
80
80
82
7c
00
00
00
00
ENDCHAR
STARTCHAR U+0044
ENCODING 68
SWIDTH 1000 0
DWIDTH 8 0
BBX 8 16 0 -2
BITMAP
00
00
00
fc
82
82
82
82
82
82
82
fc
00
00
00
00
ENDCHAR
STARTCHAR U+0045
ENCODING 69
SWIDTH 1000 0
DWIDTH 8 0
BBX 8 16 0 -2
BITMAP
00
00
00
fe
80
80
80
fc
80
80
80
fe
00
00
00
00
ENDCHAR
STARTCHAR U+0046
ENCODING 70
SWIDTH 1000 0
DWIDTH 8 0
BBX 8 16 0 -2
BITMAP
00
00
00
fe
80
80
80
fc
80
80
80
80
00
00
00
00
ENDCHAR
STARTCHAR U+0047
ENCODING 71
SWIDTH 1000 0
DWIDTH 8 0
BBX 8 16 0 -2
BITMAP
00
00
00
7c
82
80
80
9c
a2
82
82
7c
00
00
00
00
ENDCHAR
STARTCHAR U+0048
ENCODING 72
SWIDTH 1000 0
DWIDTH 8 0
BBX 8 16 0 -2
BITMAP
00
00
00
82
82
82
82
fe
82
82
82
82
00
00
00
00
ENDCHAR
STARTCHAR U+0049
ENCODING 73
SWIDTH 1000 0
DWIDTH 8 0
BBX 8 16 0 -2
BITMAP
00
00
00
fe
10
10
10
10
10
10
10
fe
00
00
00
00
ENDCHAR
STARTCHAR U+004A
ENCODING 74
SWIDTH 1000 0
DWIDTH 8 0
BBX 8 16 0 -2
BITMAP
00
00
00
fe
10
10
10
10
10
10
10
f0
00
00
00
00
ENDCHAR
STARTCHAR U+004B
ENCODING 75
SWIDTH 1000 0
DWIDTH 8 0
BBX 8 16 0 -2
BITMAP
00
00
00
84
88
90
a0
d0
88
84
82
82
00
00
00
00
ENDCHAR
STARTCHAR U+004C
ENCODING 76
SWIDTH 1000 0
DWIDTH 8 0
BBX 8 16 0 -2
BITMAP
00
00
00
80
80
80
80
80
80
80
80
fe
00
00
00
00
ENDCHAR
STARTCHAR U+004D
ENCODING 77
SWIDTH 1000 0
DWIDTH 8 0
BBX 8 16 0 -2
BITMAP
00
00
00
82
c6
aa
92
82
82
82
82
82
00
00
00
00
ENDCHAR
STARTCHAR U+004E
ENCODING 78
SWIDTH 1000 0
DWIDTH 8 0
BBX 8 16 0 -2
BITMAP
00
00
00
82
c2
a2
92
8a
86
82
82
82
00
00
00
00
ENDCHAR
STARTCHAR U+004F
ENCODING 79
SWIDTH 1000 0
DWIDTH 8 0
BBX 8 16 0 -2
BITMAP
00
00
00
7c
82
82
82
82
82
82
82
7c
00
00
00
00
ENDCHAR
STARTCHAR U+0050
ENCODING 80
SWIDTH 1000 0
DWIDTH 8 0
BBX 8 16 0 -2
BITMAP
00
00
00
fc
82
82
82
fc
80
80
80
80
00
00
00
00
ENDCHAR
STARTCHAR U+0051
ENCODING 81
SWIDTH 1000 0
DWIDTH 8 0
BBX 8 16 0 -2
BITMAP
00
00
00
7c
82
82
82
82
82
ba
8a
7c
08
0e
00
00
ENDCHAR
STARTCHAR U+0052
ENCODING 82
SWIDTH 1000 0
DWIDTH 8 0
BBX 8 16 0 -2
BITMAP
00
00
00
fc
82
82
82
fc
90
88
84
82
00
00
00
00
ENDCHAR
STARTCHAR U+0053
ENCODING 83
SWIDTH 1000 0
DWIDTH 8 0
BBX 8 16 0 -2
BITMAP
00
00
00
7c
82
80
40
38
04
02
82
7c
00
00
00
00
ENDCHAR
STARTCHAR U+0054
ENCODING 84
SWIDTH 1000 0
DWIDTH 8 0
BBX 8 16 0 -2
BITMAP
00
00
00
fe
10
10
10
10
10
10
10
10
00
00
00
00
ENDCHAR
STARTCHAR U+0055
ENCODING 85
SWIDTH 1000 0
DWIDTH 8 0
BBX 8 16 0 -2
BITMAP
00
00
00
82
82
82
82
82
82
82
82
7c
00
00
00
00
ENDCHAR
STARTCHAR U+0056
ENCODING 86
SWIDTH 1000 0
DWIDTH 8 0
BBX 8 16 0 -2
BITMAP
00
00
00
82
82
82
82
82
82
44
28
10
00
00
00
00
ENDCHAR
STARTCHAR U+0057
ENCODING 87
SWIDTH 1000 0
DWIDTH 8 0
BBX 8 16 0 -2
BITMAP
00
00
00
82
82
82
82
82
92
aa
c6
82
00
00
00
00
ENDCHAR
STARTCHAR U+0058
ENCODING 88
SWIDTH 1000 0
DWIDTH 8 0
BBX 8 16 0 -2
BITMAP
00
00
00
82
44
28
28
10
28
28
44
82
00
00
00
00
ENDCHAR
STARTCHAR U+0059
ENCODING 89
SWIDTH 1000 0
DWIDTH 8 0
BBX 8 16 0 -2
BITMAP
00
00
00
82
44
28
28
10
10
10
10
10
00
00
00
00
ENDCHAR
STARTCHAR U+005A
ENCODING 90
SWIDTH 1000 0
DWIDTH 8 0
BBX 8 16 0 -2
BITMAP
00
00
00
fe
04
08
08
10
20
20
40
fe
00
00
00
00
ENDCHAR
STARTCHAR U+0061
ENCODING 97
SWIDTH 1000 0
DWIDTH 8 0
BBX 8 16 0 -2
BITMAP
00
00
00
00
00
00
fe
02
fe
82
82
fe
00
00
00
00
ENDCHAR
STARTCHAR U+0062
ENCODING 98
SWIDTH 1000 0
DWIDTH 8 0
BBX 8 16 0 -2
BITMAP
00
00
00
80
80
80
fe
82
82
82
82
fe
00
00
00
00
ENDCHAR
STARTCHAR U+0063
ENCODING 99
SWIDTH 1000 0
DWIDTH 8 0
BBX 8 16 0 -2
BITMAP
00
00
00
00
00
00
fe
80
80
80
80
fe
00
00
00
00
ENDCHAR
STARTCHAR U+0064
ENCODING 100
SWIDTH 1000 0
DWIDTH 8 0
BBX 8 16 0 -2
BITMAP
00
00
00
02
02
02
fe
82
82
82
82
fe
00
00
00
00
ENDCHAR
STARTCHAR U+0065
ENCODING 101
SWIDTH 1000 0
DWIDTH 8 0
BBX 8 16 0 -2
BITMAP
00
00
00
00
00
00
fe
82
82
fe
80
fe
00
00
00
00
ENDCHAR
STARTCHAR U+0066
ENCODING 102
SWIDTH 1000 0
DWIDTH 8 0
BBX 8 16 0 -2
BITMAP
00
1c
10
10
10
10
7c
10
10
10
10
70
00
00
00
00
ENDCHAR
STARTCHAR U+0067
ENCODING 103
SWIDTH 1000 0
DWIDTH 8 0
BBX 8 16 0 -2
BITMAP
00
00
00
00
00
00
fe
82
82
82
82
fe
04
fe
84
fc
ENDCHAR
STARTCHAR U+0068
ENCODING 104
SWIDTH 1000 0
DWIDTH 8 0
BBX 8 16 0 -2
BITMAP
00
00
00
80
80
80
fe
82
82
82
82
82
00
00
00
00
ENDCHAR
STARTCHAR U+0069
ENCODING 105
SWIDTH 1000 0
DWIDTH 8 0
BBX 8 16 0 -2
BITMAP
00
00
00
00
10
00
10
10
10
10
10
38
00
00
00
00
ENDCHAR
STARTCHAR U+006A
ENCODING 106
SWIDTH 1000 0
DWIDTH 8 0
BBX 8 16 0 -2
BITMAP
00
00
00
00
08
00
08
08
08
08
08
08
08
88
88
f8
ENDCHAR
STARTCHAR U+006B
ENCODING 107
SWIDTH 1000 0
DWIDTH 8 0
BBX 8 16 0 -2
BITMAP
00
00
00
20
20
22
24
28
30
28
24
22
00
00
00
00
ENDCHAR
STARTCHAR U+006C
ENCODING 108
SWIDTH 1000 0
DWIDTH 8 0
BBX 8 16 0 -2
BITMAP
00
00
00
10
10
10
10
10
10
10
10
1c
00
00
00
00
ENDCHAR
STARTCHAR U+006D
ENCODING 109
SWIDTH 1000 0
DWIDTH 8 0
BBX 8 16 0 -2
BITMAP
00
00
00
00
00
00
fe
92
92
92
92
92
00
00
00
00
ENDCHAR
STARTCHAR U+006E
ENCODING 110
SWIDTH 1000 0
DWIDTH 8 0
BBX 8 16 0 -2
BITMAP
00
00
00
00
00
00
fe
82
82
82
82
82
00
00
00
00
ENDCHAR
STARTCHAR U+006F
ENCODING 111
SWIDTH 1000 0
DWIDTH 8 0
BBX 8 16 0 -2
BITMAP
00
00
00
00
00
00
fe
82
82
82
82
fe
00
00
00
00
ENDCHAR
STARTCHAR U+0070
ENCODING 112
SWIDTH 1000 0
DWIDTH 8 0
BBX 8 16 0 -2
BITMAP
00
00
00
00
00
00
fe
82
82
82
82
fe
80
80
80
80
ENDCHAR
STARTCHAR U+0071
ENCODING 113
SWIDTH 1000 0
DWIDTH 8 0
BBX 8 16 0 -2
BITMAP
00
00
00
00
00
00
fe
82
82
82
82
fe
08
0a
0a
0e
ENDCHAR
STARTCHAR U+0072
ENCODING 114
SWIDTH 1000 0
DWIDTH 8 0
BBX 8 16 0 -2
BITMAP
00
00
00
00
00
00
5c
22
20
20
20
20
00
00
00
00
ENDCHAR
STARTCHAR U+0073
ENCODING 115
SWIDTH 1000 0
DWIDTH 8 0
BBX 8 16 0 -2
BITMAP
00
00
00
00
00
00
fe
80
80
fe
02
fe
00
00
00
00
ENDCHAR
STARTCHAR U+0074
ENCODING 116
SWIDTH 1000 0
DWIDTH 8 0
BBX 8 16 0 -2
BITMAP
00
10
10
10
10
10
7c
10
10
10
10
1c
00
00
00
00
ENDCHAR
STARTCHAR U+0075
ENCODING 117
SWIDTH 1000 0
DWIDTH 8 0
BBX 8 16 0 -2
BITMAP
00
00
00
00
00
00
82
82
82
82
82
fe
00
00
00
00
ENDCHAR
STARTCHAR U+0076
ENCODING 118
SWIDTH 1000 0
DWIDTH 8 0
BBX 8 16 0 -2
BITMAP
00
00
00
00
00
00
82
44
44
28
28
10
00
00
00
00
ENDCHAR
STARTCHAR U+0077
ENCODING 119
SWIDTH 1000 0
DWIDTH 8 0
BBX 8 16 0 -2
BITMAP
00
00
00
00
00
00
82
82
92
aa
c6
82
00
00
00
00
ENDCHAR
STARTCHAR U+0078
ENCODING 120
SWIDTH 1000 0
DWIDTH 8 0
BBX 8 16 0 -2
BITMAP
00
00
00
00
00
82
44
28
10
28
44
82
00
00
00
00
ENDCHAR
STARTCHAR U+0079
ENCODING 121
SWIDTH 1000 0
DWIDTH 8 0
BBX 8 16 0 -2
BITMAP
00
00
00
00
00
00
82
82
82
82
82
fe
04
fe
84
fc
ENDCHAR
STARTCHAR U+007A
ENCODING 122
SWIDTH 1000 0
DWIDTH 8 0
BBX 8 16 0 -2
BITMAP
00
00
00
00
00
00
fe
08
10
20
40
fe
00
00
00
00
ENDCHAR
STARTCHAR U+0021
ENCODING 33
SWIDTH 1000 0
DWIDTH 8 0
BBX 8 16 0 -2
BITMAP
00
00
00
10
10
10
10
10
10
10
00
10
00
00
00
00
ENDCHAR
STARTCHAR U+0022
ENCODING 34
SWIDTH 1000 0
DWIDTH 8 0
BBX 8 16 0 -2
BITMAP
00
00
00
6c
6c
24
24
00
00
00
00
00
00
00
00
00
ENDCHAR
STARTCHAR U+0023
ENCODING 35
SWIDTH 1000 0
DWIDTH 8 0
BBX 8 16 0 -2
BITMAP
00
00
00
12
24
fe
24
48
fe
48
90
90
00
00
00
00
ENDCHAR
STARTCHAR U+0024
ENCODING 36
SWIDTH 1000 0
DWIDTH 8 0
BBX 8 16 0 -2
BITMAP
00
00
00
10
38
54
50
38
14
54
38
10
00
00
00
00
ENDCHAR
STARTCHAR U+0025
ENCODING 37
SWIDTH 1000 0
DWIDTH 8 0
BBX 8 16 0 -2
BITMAP
00
00
00
42
a4
44
08
10
10
24
4a
84
00
00
00
00
ENDCHAR
STARTCHAR U+0026
ENCODING 38
SWIDTH 1000 0
DWIDTH 8 0
BBX 8 16 0 -2
BITMAP
00
00
00
70
88
88
50
22
54
88
94
62
00
00
00
00
ENDCHAR
STARTCHAR U+0027
ENCODING 39
SWIDTH 1000 0
DWIDTH 8 0
BBX 8 16 0 -2
BITMAP
00
00
00
60
60
20
20
00
00
00
00
00
00
00
00
00
ENDCHAR
STARTCHAR U+0028
ENCODING 40
SWIDTH 1000 0
DWIDTH 8 0
BBX 8 16 0 -2
BITMAP
00
00
00
20
40
80
80
80
80
80
40
20
00
00
00
00
ENDCHAR
STARTCHAR U+0029
ENCODING 41
SWIDTH 1000 0
DWIDTH 8 0
BBX 8 16 0 -2
BITMAP
00
00
00
08
04
02
02
02
02
02
04
08
00
00
00
00
ENDCHAR
STARTCHAR U+002A
ENCODING 42
SWIDTH 1000 0
DWIDTH 8 0
BBX 8 16 0 -2
BITMAP
00
00
00
28
10
28
00
00
00
00
00
00
00
00
00
00
ENDCHAR
STARTCHAR U+002B
ENCODING 43
SWIDTH 1000 0
DWIDTH 8 0
BBX 8 16 0 -2
BITMAP
00
00
00
00
00
10
10
7c
10
10
00
00
00
00
00
00
ENDCHAR
STARTCHAR U+002C
ENCODING 44
SWIDTH 1000 0
DWIDTH 8 0
BBX 8 16 0 -2
BITMAP
00
00
00
00
00
00
00
00
00
00
60
60
20
20
00
00
ENDCHAR
STARTCHAR U+002D
ENCODING 45
SWIDTH 1000 0
DWIDTH 8 0
BBX 8 16 0 -2
BITMAP
00
00
00
00
00
00
00
7c
00
00
00
00
00
00
00
00
ENDCHAR
STARTCHAR U+002E
ENCODING 46
SWIDTH 1000 0
DWIDTH 8 0
BBX 8 16 0 -2
BITMAP
00
00
00
00
00
00
00
00
00
00
60
60
00
00
00
00
ENDCHAR
STARTCHAR U+002F
ENCODING 47
SWIDTH 1000 0
DWIDTH 8 0
BBX 8 16 0 -2
BITMAP
00
00
00
02
04
04
08
10
10
20
40
40
00
00
00
00
ENDCHAR
STARTCHAR 0
ENCODING 48
SWIDTH 1000 0
DWIDTH 8 0
BBX 8 16 0 -2
BITMAP
00
00
00
00
38
44
4c
54
64
44
44
38
00
00
00
00
ENDCHAR
STARTCHAR 1
ENCODING 49
SWIDTH 1000 0
DWIDTH 8 0
BBX 8 16 0 -2
BITMAP
00
00
00
00
30
10
10
10
10
10
10
38
00
00
00
00
ENDCHAR
STARTCHAR 2
ENCODING 50
SWIDTH 1000 0
DWIDTH 8 0
BBX 8 16 0 -2
BITMAP
00
00
00
00
38
44
04
08
10
20
40
7c
00
00
00
00
ENDCHAR
STARTCHAR 3
ENCODING 51
SWIDTH 1000 0
DWIDTH 8 0
BBX 8 16 0 -2
BITMAP
00
00
00
00
38
44
08
10
08
04
44
38
00
00
00
00
ENDCHAR
STARTCHAR 4
ENCODING 52
SWIDTH 1000 0
DWIDTH 8 0
BBX 8 16 0 -2
BITMAP
00
00
00
00
04
0c
14
24
44
7c
04
04
00
00
00
00
ENDCHAR
STARTCHAR 5
ENCODING 53
SWIDTH 1000 0
DWIDTH 8 0
BBX 8 16 0 -2
BITMAP
00
00
00
00
7c
40
40
78
04
04
44
38
00
00
00
00
ENDCHAR
STARTCHAR 6
ENCODING 54
SWIDTH 1000 0
DWIDTH 8 0
BBX 8 16 0 -2
BITMAP
00
00
00
00
38
44
40
40
58
64
44
38
00
00
00
00
ENDCHAR
STARTCHAR 7
ENCODING 55
SWIDTH 1000 0
DWIDTH 8 0
BBX 8 16 0 -2
BITMAP
00
00
00
00
7c
04
08
10
20
40
40
40
00
00
00
00
ENDCHAR
STARTCHAR 8
ENCODING 56
SWIDTH 1000 0
DWIDTH 8 0
BBX 8 16 0 -2
BITMAP
00
00
00
00
38
44
44
38
44
44
44
38
00
00
00
00
ENDCHAR
STARTCHAR 9
ENCODING 57
SWIDTH 1000 0
DWIDTH 8 0
BBX 8 16 0 -2
BITMAP
00
00
00
00
38
44
4c
34
04
04
44
38
00
00
00
00
ENDCHAR
STARTCHAR U+0020
ENCODING 32
SWIDTH 1000 0
DWIDTH 8 0
BBX 8 16 0 -2
BITMAP
00
00
00
00
00
00
00
00
00
00
00
00
00
00
00
00
ENDCHAR
STARTCHAR U+003A
ENCODING 58
SWIDTH 1000 0
DWIDTH 8 0
BBX 8 16 0 -2
BITMAP
00
00
00
00
60
60
00
00
00
60
60
00
00
00
00
00
ENDCHAR
STARTCHAR U+003B
ENCODING 59
SWIDTH 1000 0
DWIDTH 8 0
BBX 8 16 0 -2
BITMAP
00
00
00
00
60
60
00
00
00
60
60
20
00
00
00
00
ENDCHAR
STARTCHAR U+003C
ENCODING 60
SWIDTH 1000 0
DWIDTH 8 0
BBX 8 16 0 -2
BITMAP
00
00
00
00
00
06
18
60
80
60
18
06
00
00
00
00
ENDCHAR
STARTCHAR U+003D
ENCODING 61
SWIDTH 1000 0
DWIDTH 8 0
BBX 8 16 0 -2
BITMAP
00
00
00
00
00
00
fe
00
00
fe
00
00
00
00
00
00
ENDCHAR
STARTCHAR U+003E
ENCODING 62
SWIDTH 1000 0
DWIDTH 8 0
BBX 8 16 0 -2
BITMAP
00
00
00
00
00
c0
30
0c
02
0c
30
c0
00
00
00
00
ENDCHAR
STARTCHAR U+003F
ENCODING 63
SWIDTH 1000 0
DWIDTH 8 0
BBX 8 16 0 -2
BITMAP
00
00
00
fe
82
82
82
1e
10
10
00
10
00
00
00
00
ENDCHAR
STARTCHAR U+0040
ENCODING 64
SWIDTH 1000 0
DWIDTH 8 0
BBX 8 16 0 -2
BITMAP
00
00
00
fe
82
82
ba
aa
ba
8a
8e
e0
00
00
00
00
ENDCHAR
STARTCHAR U+005B
ENCODING 91
SWIDTH 1000 0
DWIDTH 8 0
BBX 8 16 0 -2
BITMAP
00
00
00
c0
80
80
80
80
80
80
80
c0
00
00
00
00
ENDCHAR
STARTCHAR U+005C
ENCODING 92
SWIDTH 1000 0
DWIDTH 8 0
BBX 8 16 0 -2
BITMAP
00
00
00
80
40
40
20
10
10
08
04
04
00
00
00
00
ENDCHAR
STARTCHAR U+005D
ENCODING 93
SWIDTH 1000 0
DWIDTH 8 0
BBX 8 16 0 -2
BITMAP
00
00
00
06
02
02
02
02
02
02
02
06
00
00
00
00
ENDCHAR
STARTCHAR U+005E
ENCODING 94
SWIDTH 1000 0
DWIDTH 8 0
BBX 8 16 0 -2
BITMAP
00
00
10
10
28
28
44
44
82
82
00
00
00
00
00
00
ENDCHAR
STARTCHAR U+005F
ENCODING 95
SWIDTH 1000 0
DWIDTH 8 0
BBX 8 16 0 -2
BITMAP
00
00
00
00
00
00
00
00
00
00
00
fe
00
00
00
00
ENDCHAR
STARTCHAR U+0060
ENCODING 96
SWIDTH 1000 0
DWIDTH 8 0
BBX 8 16 0 -2
BITMAP
00
00
00
c0
f0
00
00
00
00
00
00
00
00
00
00
00
ENDCHAR
STARTCHAR U+007B
ENCODING 123
SWIDTH 1000 0
DWIDTH 8 0
BBX 8 16 0 -2
BITMAP
00
00
00
20
40
40
40
80
40
40
40
20
00
00
00
00
ENDCHAR
STARTCHAR U+007C
ENCODING 124
SWIDTH 1000 0
DWIDTH 8 0
BBX 8 16 0 -2
BITMAP
00
00
00
10
10
10
10
10
10
10
10
10
00
00
00
00
ENDCHAR
STARTCHAR U+007D
ENCODING 125
SWIDTH 1000 0
DWIDTH 8 0
BBX 8 16 0 -2
BITMAP
00
00
00
08
04
04
04
02
04
04
04
08
00
00
00
00
ENDCHAR
STARTCHAR U+007E
ENCODING 126
SWIDTH 1000 0
DWIDTH 8 0
BBX 8 16 0 -2
BITMAP
00
00
00
00
00
00
60
92
0c
00
00
00
00
00
00
00
ENDCHAR
STARTCHAR U+23BA
ENCODING 9146
SWIDTH 1000 0
DWIDTH 8 0
BBX 8 16 0 -2
BITMAP
00
00
00
fe
00
00
00
00
00
00
00
00
00
00
00
00
ENDCHAR
STARTCHAR U+23BB
ENCODING 9147
SWIDTH 1000 0
DWIDTH 8 0
BBX 8 16 0 -2
BITMAP
00
00
00
00
00
fe
00
00
00
00
00
00
00
00
00
00
ENDCHAR
STARTCHAR U+23BC
ENCODING 9148
SWIDTH 1000 0
DWIDTH 8 0
BBX 8 16 0 -2
BITMAP
00
00
00
00
00
00
00
fe
00
00
00
00
00
00
00
00
ENDCHAR
STARTCHAR U+23BD
ENCODING 9149
SWIDTH 1000 0
DWIDTH 8 0
BBX 8 16 0 -2
BITMAP
00
00
00
00
00
00
00
00
00
fe
00
00
00
00
00
00
ENDCHAR
STARTCHAR U+2409
ENCODING 9225
SWIDTH 1000 0
DWIDTH 8 0
BBX 8 16 0 -2
BITMAP
00
00
00
a0
e0
a0
1c
08
08
00
00
00
00
00
00
00
ENDCHAR
STARTCHAR U+240A
ENCODING 9226
SWIDTH 1000 0
DWIDTH 8 0
BBX 8 16 0 -2
BITMAP
00
00
00
80
80
9c
d0
18
10
00
00
00
00
00
00
00
ENDCHAR
STARTCHAR U+240B
ENCODING 9227
SWIDTH 1000 0
DWIDTH 8 0
BBX 8 16 0 -2
BITMAP
00
00
00
a0
a0
5c
08
08
00
00
00
00
00
00
00
00
ENDCHAR
STARTCHAR U+240C
ENCODING 9228
SWIDTH 1000 0
DWIDTH 8 0
BBX 8 16 0 -2
BITMAP
00
00
00
e0
80
dc
90
18
10
00
00
00
00
00
00
00
ENDCHAR
STARTCHAR U+240D
ENCODING 9229
SWIDTH 1000 0
DWIDTH 8 0
BBX 8 16 0 -2
BITMAP
00
00
00
e0
80
8e
ea
0c
0a
00
00
00
00
00
00
00
ENDCHAR
STARTCHAR U+2424
ENCODING 9252
SWIDTH 1000 0
DWIDTH 8 0
BBX 8 16 0 -2
BITMAP
00
00
00
90
d0
b0
98
08
08
0e
00
00
00
00
00
00
ENDCHAR
STARTCHAR U+2500
ENCODING 9472
SWIDTH 1000 0
DWIDTH 8 0
BBX 8 16 0 -2
BITMAP
00
00
00
00
00
00
00
ff
00
00
00
00
00
00
00
00
ENDCHAR
STARTCHAR U+2502
ENCODING 9474
SWIDTH 1000 0
DWIDTH 8 0
BBX 8 16 0 -2
BITMAP
10
10
10
10
10
10
10
10
10
10
10
10
10
10
10
10
ENDCHAR
STARTCHAR U+250C
ENCODING 9484
SWIDTH 1000 0
DWIDTH 8 0
BBX 8 16 0 -2
BITMAP
00
00
00
00
00
00
00
1f
10
10
10
10
10
10
10
10
ENDCHAR
STARTCHAR U+2510
ENCODING 9488
SWIDTH 1000 0
DWIDTH 8 0
BBX 8 16 0 -2
BITMAP
00
00
00
00
00
00
00
f0
10
10
10
10
10
10
10
10
ENDCHAR
STARTCHAR U+2514
ENCODING 9492
SWIDTH 1000 0
DWIDTH 8 0
BBX 8 16 0 -2
BITMAP
10
10
10
10
10
10
10
1f
00
00
00
00
00
00
00
00
ENDCHAR
STARTCHAR U+2518
ENCODING 9496
SWIDTH 1000 0
DWIDTH 8 0
BBX 8 16 0 -2
BITMAP
10
10
10
10
10
10
10
f0
00
00
00
00
00
00
00
00
ENDCHAR
STARTCHAR U+251C
ENCODING 9500
SWIDTH 1000 0
DWIDTH 8 0
BBX 8 16 0 -2
BITMAP
10
10
10
10
10
10
10
1f
10
10
10
10
10
10
10
10
ENDCHAR
STARTCHAR U+2524
ENCODING 9508
SWIDTH 1000 0
DWIDTH 8 0
BBX 8 16 0 -2
BITMAP
10
10
10
10
10
10
10
f0
10
10
10
10
10
10
10
10
ENDCHAR
STARTCHAR U+252C
ENCODING 9516
SWIDTH 1000 0
DWIDTH 8 0
BBX 8 16 0 -2
BITMAP
00
00
00
00
00
00
00
ff
10
10
10
10
10
10
10
10
ENDCHAR
STARTCHAR U+2534
ENCODING 9524
SWIDTH 1000 0
DWIDTH 8 0
BBX 8 16 0 -2
BITMAP
10
10
10
10
10
10
10
ff
00
00
00
00
00
00
00
00
ENDCHAR
STARTCHAR U+253C
ENCODING 9532
SWIDTH 1000 0
DWIDTH 8 0
BBX 8 16 0 -2
BITMAP
10
10
10
10
10
10
10
ff
10
10
10
10
10
10
10
10
ENDCHAR
STARTCHAR U+2550
ENCODING 9552
SWIDTH 1000 0
DWIDTH 8 0
BBX 8 16 0 -2
BITMAP
00
00
00
00
00
00
ff
00
ff
00
00
00
00
00
00
00
ENDCHAR
STARTCHAR U+2551
ENCODING 9553
SWIDTH 1000 0
DWIDTH 8 0
BBX 8 16 0 -2
BITMAP
28
28
28
28
28
28
28
28
28
28
28
28
28
28
28
28
ENDCHAR
STARTCHAR U+2552
ENCODING 9554
SWIDTH 1000 0
DWIDTH 8 0
BBX 8 16 0 -2
BITMAP
00
00
00
00
00
00
1f
10
1f
10
10
10
10
10
10
10
ENDCHAR
STARTCHAR U+2553
ENCODING 9555
SWIDTH 1000 0
DWIDTH 8 0
BBX 8 16 0 -2
BITMAP
00
00
00
00
00
00
00
3f
28
28
28
28
28
28
28
28
ENDCHAR
STARTCHAR U+2554
ENCODING 9556
SWIDTH 1000 0
DWIDTH 8 0
BBX 8 16 0 -2
BITMAP
00
00
00
00
00
00
3f
20
2f
28
28
28
28
28
28
28
ENDCHAR
STARTCHAR U+2555
ENCODING 9557
SWIDTH 1000 0
DWIDTH 8 0
BBX 8 16 0 -2
BITMAP
00
00
00
00
00
00
f0
10
f0
10
10
10
10
10
10
10
ENDCHAR
STARTCHAR U+2556
ENCODING 9558
SWIDTH 1000 0
DWIDTH 8 0
BBX 8 16 0 -2
BITMAP
00
00
00
00
00
00
00
f8
28
28
28
28
28
28
28
28
ENDCHAR
STARTCHAR U+2557
ENCODING 9559
SWIDTH 1000 0
DWIDTH 8 0
BBX 8 16 0 -2
BITMAP
00
00
00
00
00
00
f8
08
e8
28
28
28
28
28
28
28
ENDCHAR
STARTCHAR U+2558
ENCODING 9560
SWIDTH 1000 0
DWIDTH 8 0
BBX 8 16 0 -2
BITMAP
10
10
10
10
10
10
1f
10
1f
00
00
00
00
00
00
00
ENDCHAR
STARTCHAR U+2559
ENCODING 9561
SWIDTH 1000 0
DWIDTH 8 0
BBX 8 16 0 -2
BITMAP
28
28
28
28
28
28
28
3f
00
00
00
00
00
00
00
00
ENDCHAR
STARTCHAR U+255A
ENCODING 9562
SWIDTH 1000 0
DWIDTH 8 0
BBX 8 16 0 -2
BITMAP
28
28
28
28
28
28
2f
20
3f
00
00
00
00
00
00
00
ENDCHAR
STARTCHAR U+255B
ENCODING 9563
SWIDTH 1000 0
DWIDTH 8 0
BBX 8 16 0 -2
BITMAP
10
10
10
10
10
10
f0
10
f0
00
00
00
00
00
00
00
ENDCHAR
STARTCHAR U+255C
ENCODING 9564
SWIDTH 1000 0
DWIDTH 8 0
BBX 8 16 0 -2
BITMAP
28
28
28
28
28
28
28
f8
00
00
00
00
00
00
00
00
ENDCHAR
STARTCHAR U+255D
ENCODING 9565
SWIDTH 1000 0
DWIDTH 8 0
BBX 8 16 0 -2
BITMAP
28
28
28
28
28
28
e8
08
f8
00
00
00
00
00
00
00
ENDCHAR
STARTCHAR U+255E
ENCODING 9566
SWIDTH 1000 0
DWIDTH 8 0
BBX 8 16 0 -2
BITMAP
10
10
10
10
10
10
1f
10
1f
10
10
10
10
10
10
10
ENDCHAR
STARTCHAR U+255F
ENCODING 9567
SWIDTH 1000 0
DWIDTH 8 0
BBX 8 16 0 -2
BITMAP
28
28
28
28
28
28
28
2f
28
28
28
28
28
28
28
28
ENDCHAR
STARTCHAR U+2560
ENCODING 9568
SWIDTH 1000 0
DWIDTH 8 0
BBX 8 16 0 -2
BITMAP
28
28
28
28
28
28
2f
20
2f
28
28
28
28
28
28
28
ENDCHAR
STARTCHAR U+2561
ENCODING 9569
SWIDTH 1000 0
DWIDTH 8 0
BBX 8 16 0 -2
BITMAP
10
10
10
10
10
10
f0
10
f0
10
10
10
10
10
10
10
ENDCHAR
STARTCHAR U+2562
ENCODING 9570
SWIDTH 1000 0
DWIDTH 8 0
BBX 8 16 0 -2
BITMAP
28
28
28
28
28
28
28
e8
28
28
28
28
28
28
28
28
ENDCHAR
STARTCHAR U+2563
ENCODING 9571
SWIDTH 1000 0
DWIDTH 8 0
BBX 8 16 0 -2
BITMAP
28
28
28
28
28
28
e8
08
e8
28
28
28
28
28
28
28
ENDCHAR
STARTCHAR U+2564
ENCODING 9572
SWIDTH 1000 0
DWIDTH 8 0
BBX 8 16 0 -2
BITMAP
00
00
00
00
00
00
ff
00
ff
10
10
10
10
10
10
10
ENDCHAR
STARTCHAR U+2565
ENCODING 9573
SWIDTH 1000 0
DWIDTH 8 0
BBX 8 16 0 -2
BITMAP
00
00
00
00
00
00
00
ff
28
28
28
28
28
28
28
28
ENDCHAR
STARTCHAR U+2566
ENCODING 9574
SWIDTH 1000 0
DWIDTH 8 0
BBX 8 16 0 -2
BITMAP
00
00
00
00
00
00
ff
00
ef
28
28
28
28
28
28
28
ENDCHAR
STARTCHAR U+2567
ENCODING 9575
SWIDTH 1000 0
DWIDTH 8 0
BBX 8 16 0 -2
BITMAP
10
10
10
10
10
10
ff
00
ff
00
00
00
00
00
00
00
ENDCHAR
STARTCHAR U+2568
ENCODING 9576
SWIDTH 1000 0
DWIDTH 8 0
BBX 8 16 0 -2
BITMAP
28
28
28
28
28
28
28
ff
00
00
00
00
00
00
00
00
ENDCHAR
STARTCHAR U+2569
ENCODING 9577
SWIDTH 1000 0
DWIDTH 8 0
BBX 8 16 0 -2
BITMAP
28
28
28
28
28
28
ef
00
ff
00
00
00
00
00
00
00
ENDCHAR
STARTCHAR U+256A
ENCODING 9578
SWIDTH 1000 0
DWIDTH 8 0
BBX 8 16 0 -2
BITMAP
10
10
10
10
10
10
ff
10
ff
10
10
10
10
10
10
10
ENDCHAR
STARTCHAR U+256B
ENCODING 9579
SWIDTH 1000 0
DWIDTH 8 0
BBX 8 16 0 -2
BITMAP
28
28
28
28
28
28
28
ff
28
28
28
28
28
28
28
28
ENDCHAR
STARTCHAR U+256C
ENCODING 9580
SWIDTH 1000 0
DWIDTH 8 0
BBX 8 16 0 -2
BITMAP
28
28
28
28
28
28
ef
00
ef
28
28
28
28
28
28
28
ENDCHAR
STARTCHAR U+2580
ENCODING 9600
SWIDTH 1000 0
DWIDTH 8 0
BBX 8 16 0 -2
BITMAP
ff
ff
ff
ff
ff
ff
ff
ff
00
00
00
00
00
00
00
00
ENDCHAR
STARTCHAR U+2584
ENCODING 9604
SWIDTH 1000 0
DWIDTH 8 0
BBX 8 16 0 -2
BITMAP
00
00
00
00
00
00
00
00
ff
ff
ff
ff
ff
ff
ff
ff
ENDCHAR
STARTCHAR U+2588
ENCODING 9608
SWIDTH 1000 0
DWIDTH 8 0
BBX 8 16 0 -2
BITMAP
ff
ff
ff
ff
ff
ff
ff
ff
ff
ff
ff
ff
ff
ff
ff
ff
ENDCHAR
STARTCHAR U+258C
ENCODING 9612
SWIDTH 1000 0
DWIDTH 8 0
BBX 8 16 0 -2
BITMAP
f0
f0
f0
f0
f0
f0
f0
f0
f0
f0
f0
f0
f0
f0
f0
f0
ENDCHAR
STARTCHAR U+2590
ENCODING 9616
SWIDTH 1000 0
DWIDTH 8 0
BBX 8 16 0 -2
BITMAP
0f
0f
0f
0f
0f
0f
0f
0f
0f
0f
0f
0f
0f
0f
0f
0f
ENDCHAR
STARTCHAR U+2591
ENCODING 9617
SWIDTH 1000 0
DWIDTH 8 0
BBX 8 16 0 -2
BITMAP
aa
00
aa
00
aa
00
aa
00
aa
00
aa
00
aa
00
aa
00
ENDCHAR
STARTCHAR U+2592
ENCODING 9618
SWIDTH 1000 0
DWIDTH 8 0
BBX 8 16 0 -2
BITMAP
55
aa
55
aa
55
aa
55
aa
55
aa
55
aa
55
aa
55
aa
ENDCHAR
STARTCHAR U+2593
ENCODING 9619
SWIDTH 1000 0
DWIDTH 8 0
BBX 8 16 0 -2
BITMAP
ff
aa
ff
aa
ff
aa
ff
aa
ff
aa
ff
aa
ff
aa
ff
aa
ENDCHAR
STARTCHAR U+25A0
ENCODING 9632
SWIDTH 1000 0
DWIDTH 8 0
BBX 8 16 0 -2
BITMAP
00
00
00
00
fe
fe
fe
fe
fe
fe
fe
00
00
00
00
00
ENDCHAR
STARTCHAR U+25AC
ENCODING 9644
SWIDTH 1000 0
DWIDTH 8 0
BBX 8 16 0 -2
BITMAP
00
00
00
00
00
00
ff
ff
ff
ff
ff
00
00
00
00
00
ENDCHAR
STARTCHAR U+25AE
ENCODING 9646
SWIDTH 1000 0
DWIDTH 8 0
BBX 8 16 0 -2
BITMAP
00
00
00
f8
f8
f8
f8
f8
f8
f8
f8
f8
00
00
00
00
ENDCHAR
ENDFONT
